<?xml version="1.0" encoding="utf-8" standalone="no"?>
<!DOCTYPE svg PUBLIC "-//W3C//DTD SVG 1.1//EN"
  "http://www.w3.org/Graphics/SVG/1.1/DTD/svg11.dtd">
<svg xmlns:xlink="http://www.w3.org/1999/xlink" width="460.8pt" height="345.6pt" viewBox="0 0 460.8 345.6" xmlns="http://www.w3.org/2000/svg" version="1.1">
 <metadata>
  <rdf:RDF xmlns:dc="http://purl.org/dc/elements/1.1/" xmlns:cc="http://creativecommons.org/ns#" xmlns:rdf="http://www.w3.org/1999/02/22-rdf-syntax-ns#">
   <cc:Work>
    <dc:type rdf:resource="http://purl.org/dc/dcmitype/StillImage"/>
    <dc:date>2025-01-23T13:37:05.587815</dc:date>
    <dc:format>image/svg+xml</dc:format>
    <dc:creator>
     <cc:Agent>
      <dc:title>Matplotlib v3.8.2, https://matplotlib.org/</dc:title>
     </cc:Agent>
    </dc:creator>
   </cc:Work>
  </rdf:RDF>
 </metadata>
 <defs>
  <style type="text/css">*{stroke-linejoin: round; stroke-linecap: butt}</style>
 </defs>
 <g id="figure_1">
  <g id="patch_1">
   <path d="M 0 345.6 
L 460.8 345.6 
L 460.8 0 
L 0 0 
z
" style="fill: none"/>
  </g>
  <g id="axes_1">
   <g id="LineCollection_1">
    <path d="M 303.907848 307.134205 
L 129.212456 299.619004 
L 126.362441 299.023116 
L 21.319699 265.113579 
L 20.945455 255.691537 
L 21.290911 254.058103 
L 30.733386 219.727939 
L 36.135941 203.659992 
L 66.23863 154.727065 
L 115.509351 80.801891 
L 118.061891 79.638156 
L 262.66419 38.465795 
L 264.976829 38.591983 
L 270.638476 39.843348 
L 320.710465 56.202229 
L 329.049399 58.96084 
L 354.514602 74.635445 
L 432.21612 148.08116 
L 433.175721 149.132728 
L 438.271203 154.762117 
L 439.096461 155.75059 
L 439.595453 158.039502 
L 439.854545 200.834782 
L 439.787373 204.3365 
L 439.04848 207.69801 
L 437.753019 209.864239 
L 410.068525 249.802761 
L 407.477602 251.457227 
L 303.907848 307.134205 
" clip-path="url(#p5e817d7d1a)" style="fill: none; stroke: #1f77b4; stroke-width: 1.5"/>
   </g>
  </g>
 </g>
 <defs>
  <clipPath id="p5e817d7d1a">
   <rect x="0" y="25.032375" width="460.8" height="295.53525"/>
  </clipPath>
 </defs>
</svg>
