<?xml version="1.0" encoding="utf-8" standalone="no"?>
<!DOCTYPE svg PUBLIC "-//W3C//DTD SVG 1.1//EN"
  "http://www.w3.org/Graphics/SVG/1.1/DTD/svg11.dtd">
<svg xmlns:xlink="http://www.w3.org/1999/xlink" width="460.8pt" height="345.6pt" viewBox="0 0 460.8 345.6" xmlns="http://www.w3.org/2000/svg" version="1.1">
 <metadata>
  <rdf:RDF xmlns:dc="http://purl.org/dc/elements/1.1/" xmlns:cc="http://creativecommons.org/ns#" xmlns:rdf="http://www.w3.org/1999/02/22-rdf-syntax-ns#">
   <cc:Work>
    <dc:type rdf:resource="http://purl.org/dc/dcmitype/StillImage"/>
    <dc:date>2025-01-22T21:50:00.730383</dc:date>
    <dc:format>image/svg+xml</dc:format>
    <dc:creator>
     <cc:Agent>
      <dc:title>Matplotlib v3.8.2, https://matplotlib.org/</dc:title>
     </cc:Agent>
    </dc:creator>
   </cc:Work>
  </rdf:RDF>
 </metadata>
 <defs>
  <style type="text/css">*{stroke-linejoin: round; stroke-linecap: butt}</style>
 </defs>
 <g id="figure_1">
  <g id="patch_1">
   <path d="M 0 345.6 
L 460.8 345.6 
L 460.8 0 
L 0 0 
z
" style="fill: none"/>
  </g>
  <g id="axes_1">
   <g id="LineCollection_1">
    <path d="M 103.64743 306.886567 
L 99.636094 306.871261 
L 69.499939 298.163065 
L 67.569986 297.538461 
L 57.094556 279.543097 
L 36.479094 233.099698 
L 36.411986 231.633528 
L 36.926478 179.020172 
L 37.973357 134.123271 
L 38.205997 132.468309 
L 38.599695 130.76916 
L 44.872021 108.378968 
L 46.106801 105.338166 
L 55.967148 89.471416 
L 63.474255 79.360873 
L 65.219053 77.734039 
L 139.377453 31.483447 
L 170.828561 16.432109 
L 172.313876 15.877795 
L 173.960249 15.709091 
L 175.552938 16.070588 
L 176.868247 17.106947 
L 194.195436 144.314151 
L 194.195436 144.928744 
L 191.913776 153.412434 
L 191.309808 155.605663 
L 127.226499 303.491858 
L 126.416733 303.933723 
L 109.425799 306.330512 
L 103.64743 306.886567 
" clip-path="url(#paebd2050c5)" style="fill: none; stroke: #1f77b4; stroke-width: 1.5"/>
    <path d="M 222.246424 324.211017 
L 221.007169 323.990111 
L 197.846091 310.931151 
L 196.678418 309.846585 
L 196.123661 308.352319 
L 197.201857 296.839872 
L 197.94899 295.273267 
L 200.235123 292.417253 
L 208.905428 291.127825 
L 231.869656 295.83967 
L 236.06612 299.804346 
L 239.448344 303.933723 
L 242.821621 309.693962 
L 243.197424 312.035814 
L 243.197424 312.614239 
L 242.490557 319.266219 
L 240.736811 321.351 
L 238.285147 322.19453 
L 222.246424 324.211017 
" clip-path="url(#paebd2050c5)" style="fill: none; stroke: #1f77b4; stroke-width: 1.5"/>
    <path d="M 163.527251 304.608546 
L 162.274575 304.010043 
L 152.816874 293.288925 
L 151.922105 291.067586 
L 151.595515 289.525094 
L 162.569848 295.168853 
L 165.943126 297.193344 
L 167.893721 298.784038 
L 168.636378 299.683831 
L 169.701152 301.913214 
L 163.527251 304.608546 
" clip-path="url(#paebd2050c5)" style="fill: none; stroke: #1f77b4; stroke-width: 1.5"/>
    <path d="M 262.564686 298.539009 
L 260.967524 298.261845 
L 257.464505 296.454259 
L 257.464505 295.83967 
L 258.242953 291.802685 
L 264.940295 281.306516 
L 265.544264 280.957046 
L 266.537457 280.957046 
L 278.889733 285.351535 
L 280.697166 287.066751 
L 281.582986 290.453004 
L 281.475614 291.52953 
L 280.974544 292.124018 
L 262.564686 298.539009 
" clip-path="url(#paebd2050c5)" style="fill: none; stroke: #1f77b4; stroke-width: 1.5"/>
    <path d="M 139.435613 301.170085 
L 138.643744 300.864787 
L 135.207833 299.21786 
L 131.006896 297.068826 
L 129.150251 295.514292 
L 120.766272 282.29869 
L 120.766272 281.571632 
L 125.615916 279.185593 
L 127.557563 278.872275 
L 129.839223 279.330201 
L 139.046389 285.817495 
L 140.455649 287.524675 
L 141.82017 289.717913 
L 142.616515 291.272442 
L 144.772906 298.081103 
L 144.737115 299.049177 
L 139.435613 301.170085 
" clip-path="url(#paebd2050c5)" style="fill: none; stroke: #1f77b4; stroke-width: 1.5"/>
    <path d="M 179.337807 313.433684 
L 178.680153 312.493714 
L 174.237628 303.26289 
L 179.512287 294.080271 
L 192.553536 271.541432 
L 193.788316 272.127899 
L 191.162171 284.319191 
L 190.115291 287.560844 
L 181.932635 311.746595 
L 181.395775 312.963705 
L 180.639695 313.385495 
L 179.337807 313.433684 
" clip-path="url(#paebd2050c5)" style="fill: none; stroke: #1f77b4; stroke-width: 1.5"/>
    <path d="M 420.060879 288.127866 
L 415.124361 287.20233 
L 412.067519 285.950719 
L 404.017459 282.255018 
L 399.549245 278.498703 
L 398.703615 277.297483 
L 399.889257 265.026021 
L 400.081632 264.021795 
L 402.439346 257.80765 
L 402.922521 256.771291 
L 403.674127 257.301522 
L 414.603722 265.965975 
L 423.30087 272.94333 
L 424.388014 274.152417 
L 424.186691 277.864033 
L 424.021159 278.703564 
L 422.291528 285.496315 
L 420.831607 287.380028 
L 420.060879 288.127866 
" clip-path="url(#paebd2050c5)" style="fill: none; stroke: #1f77b4; stroke-width: 1.5"/>
    <path d="M 56.07452 253.762632 
L 54.624996 252.204074 
L 53.363372 249.785902 
L 51.636469 245.106212 
L 51.269614 242.973238 
L 51.824371 241.567322 
L 53.685489 241.061195 
L 56.718754 245.106212 
L 57.434568 253.200266 
L 56.07452 253.762632 
" clip-path="url(#paebd2050c5)" style="fill: none; stroke: #1f77b4; stroke-width: 1.5"/>
    <path d="M 170.783822 284.367394 
L 169.607202 284.210735 
L 152.025004 280.957046 
L 145.783995 278.715616 
L 144.817645 278.197435 
L 140.397489 274.690682 
L 140.254326 274.409499 
L 124.891154 241.679797 
L 123.396891 238.369871 
L 123.817432 237.34556 
L 127.732043 233.585742 
L 158.104955 226.270967 
L 175.6961 226.728894 
L 177.306683 228.576669 
L 179.901512 232.979189 
L 181.771577 237.020192 
L 182.120537 238.381922 
L 186.733068 257.036405 
L 187.059658 258.647182 
L 185.869616 268.123051 
L 185.502761 269.790064 
L 184.437987 274.521972 
L 184.259033 275.040152 
L 181.525516 280.209903 
L 180.653117 280.957046 
L 170.783822 284.367394 
" clip-path="url(#paebd2050c5)" style="fill: none; stroke: #1f77b4; stroke-width: 1.5"/>
    <path d="M 281.726149 232.959108 
L 280.545055 231.099283 
L 279.757659 228.391889 
L 279.739763 226.174563 
L 280.334784 224.921288 
L 283.855698 219.052596 
L 284.589408 218.088542 
L 284.817574 218.679026 
L 288.186377 227.524239 
L 288.226641 227.946016 
L 286.293942 230.215562 
L 282.916191 232.609637 
L 281.726149 232.959108 
" clip-path="url(#paebd2050c5)" style="fill: none; stroke: #1f77b4; stroke-width: 1.5"/>
    <path d="M 173.199697 212.300187 
L 171.271471 211.761924 
L 169.795103 209.456219 
L 169.316402 205.832976 
L 169.526672 193.396658 
L 169.701153 190.938311 
L 170.264856 189.648892 
L 171.096991 188.78124 
L 171.803858 188.998151 
L 177.821175 199.767457 
L 177.986707 200.42623 
L 175.517146 208.885826 
L 174.980286 210.613087 
L 173.199697 212.300187 
" clip-path="url(#paebd2050c5)" style="fill: none; stroke: #1f77b4; stroke-width: 1.5"/>
    <path d="M 248.342343 329.890909 
L 247.197039 328.372522 
L 201.76965 254.100053 
L 200.991201 251.906822 
L 189.323422 214.59384 
L 189.323422 213.979256 
L 211.15577 188.92183 
L 264.618179 175.874936 
L 269.199392 176.055698 
L 277.865224 178.807272 
L 278.925524 179.38571 
L 282.482228 181.844052 
L 285.332066 184.262222 
L 284.249396 217.353449 
L 276.706499 258.647182 
L 260.49777 303.26289 
L 249.438433 329.774445 
L 248.342343 329.890909 
" clip-path="url(#paebd2050c5)" style="fill: none; stroke: #1f77b4; stroke-width: 1.5"/>
    <path d="M 227.185544 121.707044 
L 226.058136 121.586536 
L 225.006784 120.988009 
L 224.32676 119.927549 
L 224.179123 118.477451 
L 224.800987 117.959269 
L 231.869657 116.55336 
L 231.869657 117.292469 
L 228.11163 121.333471 
L 227.185544 121.707044 
" clip-path="url(#paebd2050c5)" style="fill: none; stroke: #1f77b4; stroke-width: 1.5"/>
    <path d="M 67.438079 121.638746 
L 66.89227 121.349528 
L 59.537274 115.705797 
L 59.725175 114.536869 
L 61.219438 110.487841 
L 67.066749 100.309014 
L 81.615683 91.929762 
L 82.309128 92.170768 
L 81.969116 97.561451 
L 79.682983 109.0779 
L 77.374481 113.825879 
L 76.645245 115.151455 
L 73.361445 119.6062 
L 67.438079 121.638746 
" clip-path="url(#paebd2050c5)" style="fill: none; stroke: #1f77b4; stroke-width: 1.5"/>
    <path d="M 196.052622 70.326151 
L 190.054608 65.643489 
L 189.081835 64.727311 
L 188.196014 63.739151 
L 188.196014 63.120553 
L 193.232242 59.789518 
L 197.691887 58.205337 
L 203.993149 57.055036 
L 205.509781 57.018882 
L 206.145067 57.255874 
L 206.619295 57.729865 
L 207.012992 58.926913 
L 206.970413 59.969384 
L 206.564243 60.812316 
L 197.75303 69.930858 
L 196.052622 70.326151 
" clip-path="url(#paebd2050c5)" style="fill: none; stroke: #1f77b4; stroke-width: 1.5"/>
   </g>
  </g>
 </g>
 <defs>
  <clipPath id="paebd2050c5">
   <rect x="17.013185" y="0" width="426.773631" height="345.6"/>
  </clipPath>
 </defs>
</svg>
