<?xml version="1.0" encoding="utf-8" standalone="no"?>
<!DOCTYPE svg PUBLIC "-//W3C//DTD SVG 1.1//EN"
  "http://www.w3.org/Graphics/SVG/1.1/DTD/svg11.dtd">
<svg xmlns:xlink="http://www.w3.org/1999/xlink" width="460.8pt" height="345.6pt" viewBox="0 0 460.8 345.6" xmlns="http://www.w3.org/2000/svg" version="1.1">
 <metadata>
  <rdf:RDF xmlns:dc="http://purl.org/dc/elements/1.1/" xmlns:cc="http://creativecommons.org/ns#" xmlns:rdf="http://www.w3.org/1999/02/22-rdf-syntax-ns#">
   <cc:Work>
    <dc:type rdf:resource="http://purl.org/dc/dcmitype/StillImage"/>
    <dc:date>2025-01-22T21:50:33.054691</dc:date>
    <dc:format>image/svg+xml</dc:format>
    <dc:creator>
     <cc:Agent>
      <dc:title>Matplotlib v3.8.2, https://matplotlib.org/</dc:title>
     </cc:Agent>
    </dc:creator>
   </cc:Work>
  </rdf:RDF>
 </metadata>
 <defs>
  <style type="text/css">*{stroke-linejoin: round; stroke-linecap: butt}</style>
 </defs>
 <g id="figure_1">
  <g id="patch_1">
   <path d="M 0 345.6 
L 460.8 345.6 
L 460.8 0 
L 0 0 
z
" style="fill: none"/>
  </g>
  <g id="axes_1">
   <g id="LineCollection_1">
    <path d="M 67.569986 297.538461 
L 68.01073 295.83967 
L 67.60361 295.168853 
L 68.341794 292.441359 
L 67.876515 289.934808 
L 66.999642 287.500562 
L 66.480676 284.99403 
L 66.690947 281.800595 
L 67.33518 279.157475 
L 68.12705 276.72725 
L 68.731019 274.152417 
L 62.883707 273.075888 
L 62.230527 273.148192 
L 62.02473 273.96764 
L 61.886041 277.787712 
L 61.541555 278.281791 
L 61.004694 278.390246 
L 60.302301 279.209694 
L 59.546222 280.314342 
L 58.696192 280.828505 
L 57.846162 280.62766 
L 57.094556 279.543097 
L 56.468218 277.088771 
L 56.544274 274.726834 
L 56.88876 272.336778 
L 57.094556 269.773997 
L 58.12354 267.837849 
L 60.409673 267.484363 
L 62.722649 268.183304 
L 63.885848 269.436576 
L 63.147664 269.637422 
L 62.552643 270.147567 
L 61.595241 271.45306 
L 61.765247 272.557708 
L 65.040099 273.051787 
L 68.037573 273.786879 
L 69.147086 273.324936 
L 69.021818 271.449043 
L 68.01073 268.086897 
L 67.303863 263.857101 
L 66.89227 259.63534 
L 66.999642 258.502573 
L 67.491764 257.112726 
L 67.60361 256.261144 
L 67.50966 254.999838 
L 66.89227 252.525426 
L 66.395673 248.070685 
L 65.993028 245.96181 
L 65.201157 244.069852 
L 63.81874 242.949136 
L 61.845776 242.455056 
L 58.1817 242.354634 
L 55.537659 241.503052 
L 53.296265 239.358029 
L 48.307931 231.754035 
L 48.352669 231.055097 
L 49.515868 230.834164 
L 49.515868 230.215562 
L 48.460042 229.77772 
L 47.198418 229.669264 
L 45.968112 229.994634 
L 45.015184 230.834164 
L 44.384372 232.224014 
L 44.549904 233.151918 
L 46.182856 234.935422 
L 45.672838 235.059944 
L 45.3373 235.296942 
L 44.639381 236.2851 
L 45.909952 236.522097 
L 47.404215 237.514271 
L 48.656891 238.988474 
L 49.175856 240.695657 
L 48.468989 240.972822 
L 41.887968 235.381298 
L 40.545816 234.577917 
L 37.32465 233.971366 
L 36.479094 233.099698 
L 36.411986 231.633528 
L 39.503411 223.21009 
L 40.541342 219.390015 
L 41.230313 215.328932 
L 41.324264 211.328096 
L 38.698119 191.938519 
L 38.214944 190.263475 
L 38.26863 189.805545 
L 38.429688 189.596671 
L 38.760753 189.70914 
L 39.521306 190.849939 
L 40.890302 198.421797 
L 41.874547 201.0368 
L 42.01771 202.129397 
L 41.887968 203.073368 
L 41.351107 204.427065 
L 41.230313 205.527696 
L 41.418215 206.881389 
L 41.887968 207.158559 
L 44.357529 205.752645 
L 46.983674 203.63975 
L 48.222928 203.193872 
L 50.365898 201.482678 
L 52.558081 199.15689 
L 52.866776 197.55013 
L 52.513342 195.838928 
L 51.743842 194.167902 
L 50.866969 192.661563 
L 48.809001 189.962205 
L 48.809001 186.90133 
L 48.182663 183.358425 
L 46.76893 181.092888 
L 44.863073 179.715093 
L 40.621871 177.766897 
L 39.472094 177.610236 
L 38.975497 178.441737 
L 39.029183 182.659483 
L 38.935233 184.659901 
L 38.599695 186.90133 
L 38.801017 188.544244 
L 38.653381 189.178908 
L 37.848089 188.92183 
L 37.619923 188.399633 
L 37.177013 186.182306 
L 36.926478 179.020172 
L 37.096484 176.790788 
L 38.425215 170.620836 
L 38.599695 168.299063 
L 37.973357 134.123271 
L 38.205997 132.468309 
L 38.599695 130.76916 
L 41.069255 122.237265 
L 42.183242 119.590126 
L 43.001955 118.312753 
L 43.337493 118.573854 
L 43.556711 119.437486 
L 44.062255 119.927549 
L 44.021991 120.626499 
L 42.357721 124.707667 
L 42.357722 125.382503 
L 42.697734 125.719918 
L 43.069062 125.90069 
L 44.062256 125.997081 
L 44.250157 126.418862 
L 44.755701 128.322872 
L 45.203085 128.748665 
L 47.457901 129.154375 
L 48.06187 129.568106 
L 47.27 130.042106 
L 47.471323 130.949924 
L 47.323686 132.540618 
L 47.645802 133.468525 
L 48.142399 133.858154 
L 48.571888 133.60911 
L 48.728472 132.942306 
L 48.397408 132.11885 
L 48.397408 131.444003 
L 50.128785 130.877625 
L 52.799668 130.805326 
L 55.242386 131.303416 
L 56.30716 132.456271 
L 56.817178 132.620956 
L 59.537274 134.81418 
L 60.297827 134.468729 
L 61.004694 133.613133 
L 61.595241 132.508479 
L 62.006835 131.444003 
L 62.346847 131.444003 
L 64.011116 136.083521 
L 64.055854 136.838704 
L 63.845584 137.256457 
L 63.930587 138.188377 
L 64.288494 139.112266 
L 65.187736 139.835314 
L 66.261458 141.225162 
L 66.892269 141.618821 
L 67.831776 141.602752 
L 71.549539 140.69895 
L 71.844813 140.204861 
L 72.037188 139.445666 
L 72.126665 137.083726 
L 72.198246 136.107624 
L 72.520363 134.083106 
L 72.757476 133.516723 
L 73.048276 133.287757 
L 73.164596 132.966413 
L 72.891691 132.11885 
L 71.187158 130.76916 
L 70.636875 130.716947 
L 70.220808 130.479942 
L 69.970272 129.973827 
L 69.889744 129.118221 
L 69.643683 128.242529 
L 68.708649 127.744442 
L 68.731018 126.732187 
L 69.460255 126.069386 
L 71.974554 125.90069 
L 75.52231 119.927549 
L 76.349971 119.441513 
L 78.609261 118.74256 
L 81.642526 118.610014 
L 81.749898 118.393097 
L 80.434588 117.903036 
L 78.032136 117.82269 
L 77.468431 117.272382 
L 77.97845 115.512974 
L 78.783741 113.966472 
L 79.436922 113.130955 
L 81.186194 111.837522 
L 83.785496 109.314895 
L 84.805532 109.0779 
L 85.405027 109.198405 
L 86.420589 109.700525 
L 87.037979 109.821025 
L 87.682212 109.644296 
L 88.724617 108.403063 
L 89.690967 108.366912 
L 90.95259 108.776644 
L 92.044207 109.596092 
L 92.513961 110.793127 
L 92.840552 113.102838 
L 93.610052 114.472601 
L 94.495873 115.440671 
L 95.171423 116.55336 
L 95.896186 118.634111 
L 94.366132 119.011692 
L 92.751075 121.574474 
L 91.355236 121.948057 
L 91.355236 122.683153 
L 91.578928 123.582927 
L 90.983907 124.454602 
L 89.480697 125.997081 
L 88.966205 127.394962 
L 88.903571 128.644226 
L 89.131737 131.781422 
L 89.547804 132.733432 
L 90.45152 132.572756 
L 91.355236 131.516315 
L 92.088946 128.286717 
L 92.903185 128.065791 
L 93.896378 128.262619 
L 94.764304 128.073824 
L 94.419818 127.129849 
L 93.976907 126.780388 
L 93.448994 126.90089 
L 92.889764 127.342754 
L 93.305831 126.266221 
L 94.12007 124.643391 
L 94.388501 123.297736 
L 94.764303 123.297736 
L 94.433239 125.515058 
L 95.869342 125.852487 
L 97.828885 125.515058 
L 99.063665 125.683773 
L 99.810797 126.189893 
L 100.647406 126.021183 
L 101.403485 126.097512 
L 101.904555 127.342754 
L 101.743497 128.310815 
L 100.481873 130.146552 
L 99.980803 131.444003 
L 100.580298 131.685017 
L 100.696617 132.11885 
L 100.732409 132.717355 
L 101.108211 133.468525 
L 101.645072 134.010804 
L 103.023016 134.81418 
L 103.246708 135.223906 
L 103.380922 135.758162 
L 103.613562 136.179932 
L 104.150423 136.228137 
L 105.277832 134.083106 
L 106.05628 134.80615 
L 106.727357 134.018834 
L 106.709461 132.769578 
L 105.479154 132.11885 
L 103.774621 133.131109 
L 103.667249 133.432366 
L 103.416713 133.520746 
L 102.835114 133.468525 
L 102.365361 133.199391 
L 102.334044 132.628987 
L 102.499576 132.154997 
L 102.647212 132.11885 
L 102.745637 128.451412 
L 103.649353 125.294127 
L 104.137002 122.478287 
L 103.023016 119.927549 
L 102.199829 119.10007 
L 101.108211 119.248702 
L 98.898133 120.260954 
L 98.352325 121.032201 
L 97.162283 121.791398 
L 95.999084 121.863705 
L 95.515909 120.598379 
L 96.133299 119.405354 
L 98.665494 117.874912 
L 99.238145 116.215932 
L 99.551314 114.83412 
L 99.439468 114.151257 
L 98.065999 113.669222 
L 97.502295 113.179164 
L 96.647791 111.837522 
L 96.356991 111.186779 
L 96.043823 110.186563 
L 95.838026 109.009614 
L 95.896186 107.78848 
L 96.178037 107.463119 
L 97.439661 105.498853 
L 97.842307 104.522741 
L 97.797568 103.37793 
L 97.538085 102.245163 
L 97.189126 101.726976 
L 96.544893 101.59442 
L 96.057244 101.257002 
L 95.171423 100.317044 
L 96.195933 97.850675 
L 97.224917 95.894432 
L 98.338903 94.299735 
L 100.043437 92.572459 
L 100.839781 92.210941 
L 101.318482 92.170768 
L 101.609282 91.85745 
L 102.092456 90.146256 
L 110.243796 87.454938 
L 112.060176 87.511164 
L 118.475665 90.146256 
L 118.475665 90.881348 
L 117.773272 91.343285 
L 117.724059 91.953866 
L 118.149075 92.532287 
L 118.887258 92.905865 
L 119.638864 92.837574 
L 120.175725 92.327425 
L 122.180005 89.194255 
L 123.088195 87.410751 
L 124.09481 86.000819 
L 126.251202 85.217516 
L 128.067581 84.080739 
L 130.6982 84.75558 
L 136.563407 84.080739 
L 133.310924 81.108224 
L 131.66455 80.497664 
L 130.550563 79.57378 
L 129.960017 79.360873 
L 129.517106 79.601891 
L 127.584407 82.184756 
L 126.52858 83.269318 
L 125.356433 83.815623 
L 124.327449 83.036346 
L 123.334257 82.048179 
L 122.287378 82.325351 
L 120.363626 84.080739 
L 118.149075 84.996582 
L 113.375485 85.068893 
L 100.795042 89.527651 
L 99.707899 89.632085 
L 98.665494 89.170147 
L 92.513961 84.080739 
L 92.862921 85.382215 
L 92.420011 86.049013 
L 90.608104 86.780097 
L 89.265952 87.776282 
L 88.563559 88.11371 
L 87.633 88.129767 
L 87.977486 87.511164 
L 86.988767 86.884533 
L 86.040312 87.093418 
L 85.100805 87.84056 
L 84.192615 88.856835 
L 83.302321 88.760432 
L 82.174913 89.849002 
L 81.217511 91.029967 
L 80.810391 91.218775 
L 80.340638 89.8972 
L 79.249021 89.387055 
L 77.996345 89.519615 
L 77.056838 90.146256 
L 77.862129 91.00186 
L 75.866796 92.837574 
L 73.137752 94.259567 
L 71.17821 93.689162 
L 69.889744 93.966326 
L 68.601277 94.548771 
L 68.01073 95.263789 
L 67.710982 97.175836 
L 66.972799 98.340731 
L 66.104874 99.224443 
L 65.389059 100.317044 
L 64.919305 104.209421 
L 64.664296 104.703507 
L 64.301915 105.113219 
L 62.557117 107.78848 
L 61.317863 107.896938 
L 60.727316 108.174098 
L 60.47678 108.740493 
L 60.065187 109.13816 
L 59.161471 109.499685 
L 58.257755 110.174524 
L 57.846162 111.467961 
L 58.315915 114.814045 
L 58.262229 116.380636 
L 57.434568 117.292469 
L 57.434568 117.903036 
L 59.631225 117.682098 
L 60.136769 117.903036 
L 60.548362 119.10408 
L 60.217298 119.943623 
L 59.501483 120.441723 
L 58.785668 120.598379 
L 58.141435 120.393519 
L 56.852969 119.465608 
L 56.141628 119.248702 
L 55.483973 119.441513 
L 54.383408 120.333252 
L 53.685489 120.598379 
L 53.685489 121.333471 
L 56.30716 120.598379 
L 57.094556 120.851439 
L 58.248808 121.751218 
L 58.785668 121.948057 
L 62.664489 120.273001 
L 63.474254 120.598379 
L 63.626365 121.321409 
L 63.474255 124.03282 
L 64.301915 125.342332 
L 64.673244 126.286298 
L 63.859005 127.736409 
L 63.295301 128.431338 
L 62.557117 128.748665 
L 61.778669 128.869169 
L 61.295493 129.182496 
L 61.317863 129.60025 
L 62.006834 130.042106 
L 60.892848 130.066202 
L 59.362794 128.660292 
L 58.016168 126.852689 
L 57.434568 125.683773 
L 56.933498 124.213578 
L 55.698718 123.028595 
L 54.155242 122.237265 
L 52.745982 121.948057 
L 51.770685 121.429873 
L 50.607486 120.176593 
L 49.524816 118.650186 
L 48.809001 117.292469 
L 48.196085 113.733493 
L 47.847126 113.187188 
L 47.099994 112.930109 
L 45.552044 111.909825 
L 44.639381 111.837522 
L 45.431251 115.476823 
L 45.713103 117.609805 
L 45.578888 118.947425 
L 44.760174 119.084011 
L 44.344107 117.007265 
L 44.227788 112.452097 
L 44.872021 108.378968 
L 46.106801 105.338166 
L 55.967148 89.471416 
L 58.928831 86.442674 
L 63.474255 79.360873 
L 65.219053 77.734039 
L 67.187543 77.770179 
L 71.768757 79.360873 
L 74.341216 79.517542 
L 79.311654 78.400834 
L 81.521732 77.284143 
L 84.161298 74.408045 
L 85.145544 73.96618 
L 98.898133 75.93446 
L 103.895415 75.347992 
L 108.8748 73.532362 
L 113.585756 70.415239 
L 117.733007 65.884171 
L 129.561844 44.522305 
L 131.651128 41.497585 
L 135.440472 37.388292 
L 137.337381 33.845388 
L 138.066617 33.34729 
L 139.377453 31.483447 
L 142.039389 30.965271 
L 147.112726 31.326785 
L 152.05632 30.511363 
L 156.561479 28.567174 
L 160.467143 25.795521 
L 167.168958 19.083274 
L 170.828561 16.432109 
L 172.313876 15.877795 
L 173.960249 15.709091 
L 175.552938 16.070588 
L 176.868247 17.106947 
L 173.870773 18.203569 
L 171.016462 20.866779 
L 166.506829 27.615173 
L 164.855982 33.540093 
L 166.390509 37.990826 
L 169.173239 42.080021 
L 171.240154 46.892274 
L 169.638519 51.234538 
L 169.665362 56.380195 
L 170.828561 66.494743 
L 169.889054 67.97296 
L 167.079482 70.00551 
L 165.755224 71.61228 
L 163.813577 75.605076 
L 162.936704 78.288365 
L 162.305892 82.538251 
L 160.94137 87.286226 
L 160.279242 88.856835 
L 159.813962 89.543722 
L 159.366578 89.929343 
L 158.767084 90.110096 
L 156.172255 90.073952 
L 154.373771 90.572039 
L 149.770188 87.511164 
L 146.36112 83.891943 
L 144.092882 82.980104 
L 142.258607 81.132328 
L 140.898559 80.710557 
L 139.789047 81.325144 
L 138.23215 83.823646 
L 137.176323 84.080739 
L 138.196359 84.205256 
L 139.355084 82.735069 
L 140.321434 82.060239 
L 141.301205 81.582229 
L 142.437561 82.056219 
L 147.859857 87.679873 
L 149.658342 88.555555 
L 151.769995 90.45154 
L 152.977932 90.881348 
L 157.415983 90.989807 
L 158.440492 91.556194 
L 156.897017 93.448147 
L 156.561479 94.255551 
L 156.297522 95.561039 
L 155.809874 98.975398 
L 156.208046 100.590191 
L 156.80754 105.627396 
L 157.044654 109.596092 
L 157.433878 111.692915 
L 158.784979 115.878513 
L 159.787119 117.115726 
L 159.916861 117.766456 
L 159.160781 118.634111 
L 158.713397 118.666245 
L 157.420457 118.067723 
L 156.727011 117.903036 
L 154.252977 117.903036 
L 153.389525 118.284645 
L 152.400806 119.248702 
L 151.474721 118.272596 
L 150.43679 117.501348 
L 149.246748 117.272382 
L 147.859857 117.903036 
L 146.634025 118.875121 
L 146.119533 119.079984 
L 145.233712 119.248702 
L 144.401577 119.654406 
L 142.705991 121.032201 
L 140.692763 121.755244 
L 138.200832 123.611058 
L 130.52372 124.707667 
L 130.52372 125.382503 
L 133.020124 125.82436 
L 141.274362 123.297736 
L 143.113111 122.16095 
L 143.918402 121.948057 
L 144.10183 121.735162 
L 144.240519 120.811273 
L 144.647639 120.598379 
L 145.095023 120.714868 
L 146.173219 121.333471 
L 146.763766 121.188852 
L 147.439316 120.79119 
L 147.998546 120.23686 
L 148.23566 119.590126 
L 148.602515 118.256521 
L 149.47044 118.055674 
L 151.273398 118.634111 
L 150.857331 119.927549 
L 154.494564 120.626499 
L 156.780697 120.489926 
L 158.252592 119.590126 
L 159.567901 119.10007 
L 160.587937 121.273208 
L 160.856367 124.538958 
L 159.903439 127.342754 
L 156.199098 130.170648 
L 153.470055 133.239559 
L 152.977932 133.468525 
L 152.400806 137.577812 
L 152.816873 138.698534 
L 152.561864 140.1165 
L 151.940001 141.425998 
L 151.273398 142.229381 
L 152.96451 142.141015 
L 153.595322 141.618821 
L 153.528214 137.879083 
L 153.702695 135.167668 
L 154.257451 133.854147 
L 156.561479 132.11885 
L 158.382333 129.684595 
L 159.353157 129.033857 
L 160.485039 129.7569 
L 160.681887 130.383546 
L 161.030847 133.131109 
L 161.272435 133.456472 
L 162.900913 134.81418 
L 167.025795 137.160052 
L 171.513058 137.686265 
L 184.572202 135.633638 
L 186.39753 135.842507 
L 188.196014 136.838704 
L 189.014727 137.770616 
L 190.786369 140.879702 
L 194.195436 144.314151 
L 194.195436 144.928744 
L 192.920391 146.182012 
L 192.235894 148.45557 
L 191.962989 151.082636 
L 191.913776 153.412434 
L 191.309808 155.605663 
L 186.249893 162.824028 
L 183.686382 164.595484 
L 182.720032 165.945158 
L 182.424758 167.254669 
L 182.567921 170.32358 
L 181.79842 173.328225 
L 180.06257 173.689746 
L 178.147766 172.275797 
L 176.868247 169.98616 
L 178.281981 169.74515 
L 178.86358 169.210899 
L 179.149906 167.961642 
L 178.997796 166.6441 
L 178.443039 166.242411 
L 177.727225 166.113869 
L 177.06957 165.607738 
L 175.749786 165.133746 
L 174.385265 166.764608 
L 173.146011 168.917664 
L 171.383317 170.990387 
L 171.768067 173.288058 
L 172.49283 175.802632 
L 172.734417 177.465627 
L 172.197556 178.156537 
L 171.320683 178.586346 
L 170.38565 178.694803 
L 169.701152 178.441737 
L 169.146396 177.62229 
L 168.600587 175.730328 
L 168.197941 174.766276 
L 168.636378 174.296293 
L 169.566937 173.617441 
L 170.076955 173.416593 
L 169.683257 172.315966 
L 169.200082 171.789753 
L 166.927371 171.10286 
L 166.4263 171.199268 
L 165.200468 172.006659 
L 163.661466 172.307931 
L 162.713012 171.536687 
L 161.876403 170.154871 
L 160.690835 168.636484 
L 161.916668 168.511959 
L 163.755417 167.013659 
L 164.788874 166.620002 
L 165.567323 167.198436 
L 166.520251 168.226758 
L 167.459758 168.608366 
L 168.197941 167.230571 
L 167.267382 165.655945 
L 167.330016 164.426773 
L 168.940599 161.161034 
L 168.197942 161.173083 
L 167.406072 160.851729 
L 166.681309 160.265265 
L 166.131027 159.510085 
L 165.527058 159.100367 
L 164.104377 159.767166 
L 163.348297 159.140536 
L 163.1425 160.462094 
L 162.842753 161.285558 
L 162.359578 161.715368 
L 161.594551 161.835871 
L 161.191905 162.366102 
L 159.715538 165.607738 
L 158.373385 167.343045 
L 155.402754 169.801382 
L 154.06955 171.669241 
L 153.300049 173.982977 
L 153.666904 175.429061 
L 154.575093 176.778742 
L 155.434071 178.807272 
L 155.796452 181.30579 
L 155.568286 183.209798 
L 154.892736 184.937066 
L 153.899543 186.90133 
L 155.219327 186.250595 
L 156.185677 186.130083 
L 156.449633 186.829025 
L 155.07169 189.942125 
L 154.937475 191.203425 
L 154.977739 195.421175 
L 154.89721 196.180366 
L 154.682466 197.011865 
L 153.362683 198.759216 
L 153.152412 199.458157 
L 152.883981 199.454142 
L 152.28896 199.8478 
L 151.649201 200.458367 
L 151.273398 201.048852 
L 151.546303 201.301916 
L 151.944475 202.274003 
L 152.154745 203.318397 
L 151.67157 204.033408 
L 151.206291 205.001477 
L 150.687325 205.218397 
L 150.011775 205.037634 
L 149.497283 204.563639 
L 148.64278 203.193872 
L 148.396718 202.55519 
L 147.998546 201.09304 
L 147.488528 200.442299 
L 146.790609 200.193253 
L 141.448842 200.442299 
L 140.737501 200.691348 
L 140.294591 201.277811 
L 139.569828 202.458786 
L 138.142673 203.037215 
L 135.243623 202.860476 
L 133.905945 203.193872 
L 135.288362 204.748412 
L 143.153376 206.507817 
L 143.708132 206.949675 
L 143.511283 207.990056 
L 142.603093 210.002525 
L 142.146761 211.725772 
L 142.280977 212.484964 
L 143.046003 212.665728 
L 144.482107 212.629571 
L 144.482107 213.312447 
L 142.22729 214.617942 
L 141.569636 215.726603 
L 142.195974 217.353449 
L 141.990177 217.52216 
L 141.480159 218.088542 
L 140.187218 217.269097 
L 134.147532 219.064652 
L 131.39612 220.570985 
L 129.772115 220.719613 
L 126.403312 219.36993 
L 124.461665 217.626598 
L 123.960595 217.353449 
L 118.269868 217.321313 
L 116.981401 216.678613 
L 116.645863 217.626598 
L 116.605599 218.088542 
L 117.750902 218.646892 
L 121.705778 218.70313 
L 122.421593 219.149003 
L 125.266956 222.13356 
L 125.85303 223.306493 
L 126.251202 224.366956 
L 126.805958 225.1382 
L 127.897575 225.439469 
L 133.154339 225.439469 
L 132.255097 226.568219 
L 129.400786 228.865885 
L 127.870732 230.874335 
L 127.128075 231.392516 
L 125.848556 231.565241 
L 125.383276 231.991034 
L 125.079055 234.260583 
L 121.616302 235.148316 
L 120.363626 236.072203 
L 119.603073 236.2851 
L 118.940944 236.128441 
L 117.706164 235.582142 
L 116.981401 235.610262 
L 117.124565 236.015966 
L 117.357204 236.2851 
L 116.56086 237.43795 
L 114.525263 238.120821 
L 113.599177 238.984456 
L 114.565527 239.607074 
L 115.598984 239.53879 
L 118.305659 238.815747 
L 118.806729 238.506444 
L 119.334642 238.357821 
L 122.51107 240.117222 
L 122.734762 241.229902 
L 122.497648 242.579581 
L 121.89368 243.76055 
L 121.142074 244.286763 
L 119.280956 244.672388 
L 118.475665 245.106212 
L 118.766464 246.202827 
L 119.442015 247.697111 
L 119.638863 248.480409 
L 119.486753 249.589073 
L 119.164636 250.444671 
L 119.249639 251.179767 
L 120.363626 251.906822 
L 121.04365 252.553546 
L 121.692357 253.469397 
L 121.857889 254.437472 
L 121.106284 255.21675 
L 121.106284 255.951843 
L 121.669988 256.606597 
L 123.705586 260.189672 
L 124.381136 260.486923 
L 125.034317 261.133643 
L 125.266956 262.752454 
L 125.06116 263.905304 
L 124.309554 265.483945 
L 124.139548 267.074639 
L 123.844275 267.79768 
L 123.137408 268.303811 
L 122.269483 268.60106 
L 121.517877 268.701483 
L 118.287763 268.086897 
L 117.545106 268.295777 
L 117.088774 268.821991 
L 116.726393 269.476745 
L 116.229796 270.111415 
L 114.905539 270.971032 
L 114.100247 271.316485 
L 113.397854 271.45306 
L 112.954944 271.878851 
L 112.954944 272.750519 
L 113.411276 273.473561 
L 114.35973 273.473561 
L 114.35973 274.152417 
L 112.7402 274.09618 
L 111.988594 274.293008 
L 111.317518 274.891527 
L 111.872274 275.317318 
L 112.561246 275.486028 
L 114.14946 275.502095 
L 114.878696 275.863616 
L 115.67504 276.751352 
L 116.981402 278.872275 
L 115.55872 280.804404 
L 114.619213 281.720257 
L 113.599177 282.29869 
L 111.089352 282.824904 
L 110.096159 283.596149 
L 110.565913 284.99403 
L 111.245936 285.014115 
L 114.35973 283.712639 
L 115.760043 283.809045 
L 116.229796 283.712639 
L 116.632442 283.391287 
L 117.473524 282.487485 
L 118.099862 282.29869 
L 119.289904 282.820888 
L 121.504456 285.355552 
L 122.645285 286.343709 
L 125.665128 287.187258 
L 126.403312 287.753653 
L 126.823853 289.191691 
L 128.085476 297.430358 
L 127.557563 297.86418 
L 126.73885 297.88828 
L 125.964875 297.406258 
L 125.32959 297.313875 
L 124.891154 298.539009 
L 125.580126 298.776005 
L 126.233307 299.201795 
L 126.779115 299.788282 
L 127.145969 300.503293 
L 127.35624 301.334795 
L 127.463613 302.479599 
L 127.226499 303.491858 
L 126.416733 303.933723 
L 125.776975 303.507919 
L 124.994051 301.660164 
L 124.51535 301.23437 
L 122.229218 301.411095 
L 121.517877 301.23437 
L 120.48442 300.599675 
L 120.560474 300.206047 
L 121.007859 299.828443 
L 121.106284 299.213843 
L 120.135459 297.743684 
L 119.773079 296.855939 
L 120.166776 296.454259 
L 121.634196 295.863772 
L 121.338923 294.731011 
L 120.028088 293.947697 
L 118.475665 294.437751 
L 118.171443 295.024235 
L 117.446681 297.032675 
L 116.229797 299.213843 
L 115.813729 299.354443 
L 114.923435 299.21786 
L 114.538684 299.551267 
L 113.599177 300.696089 
L 111.30857 302.720623 
L 110.565912 303.933723 
L 110.238293 306.044841 
L 109.425799 306.330512 
L 108.493987 306.218289 
L 107.38604 305.131686 
L 106.391729 305.366339 
L 105.789461 305.927504 
L 105.005376 306.151953 
L 104.471288 306.728431 
L 103.64743 306.886567 
L 99.636094 306.871261 
L 98.66451 306.463153 
L 98.261104 305.289805 
L 98.096332 303.912423 
L 97.846334 302.91763 
L 96.925885 302.070796 
L 85.266875 299.213969 
L 80.948723 297.377451 
L 76.556707 296.591835 
L 75.272626 296.795876 
L 71.528333 298.25491 
L 69.499939 298.163065 
L 67.569986 297.538461 
L 67.569986 297.538461 
" clip-path="url(#p7b694ee42f)" style="fill: none; stroke: #008000; stroke-width: 1.5"/>
    <path d="M 242.63372 313.767083 
L 242.007382 314.494149 
L 241.443678 314.735171 
L 240.956029 315.07259 
L 240.531015 316.12901 
L 242.700828 317.133241 
L 242.490557 319.266219 
L 240.736811 321.351 
L 238.285147 322.19453 
L 229.73116 320.234299 
L 226.957379 320.905105 
L 224.32676 322.19453 
L 222.246424 324.211017 
L 221.007169 323.990111 
L 215.889095 320.812716 
L 212.533713 317.751846 
L 206.489553 313.734947 
L 203.764984 313.108306 
L 200.821195 311.67429 
L 197.846091 310.931151 
L 196.678418 309.846585 
L 196.123661 308.352319 
L 196.481568 306.685305 
L 197.859512 305.845766 
L 199.537202 306.126955 
L 201.098574 305.998389 
L 202.114135 303.933723 
L 201.223841 303.588256 
L 200.476709 302.985735 
L 197.555292 299.201795 
L 197.201858 298.539009 
L 197.201857 296.839872 
L 197.94899 295.273267 
L 200.235123 292.417253 
L 201.01357 292.814942 
L 208.905428 291.127825 
L 210.243106 291.786613 
L 212.851356 293.971802 
L 213.817706 294.437751 
L 214.797478 295.285318 
L 216.448324 299.041144 
L 217.759161 299.888684 
L 219.078944 300.201999 
L 228.863235 305.950213 
L 228.335322 304.23097 
L 227.700036 303.162475 
L 227.655298 302.310884 
L 228.863235 301.23437 
L 230.366446 301.23437 
L 231.699652 300.591643 
L 232.245459 300.503293 
L 231.748863 299.430782 
L 231.614648 298.197581 
L 231.699651 296.948324 
L 231.869656 295.83967 
L 236.06612 299.804346 
L 236.406132 301.23437 
L 237.70802 302.985735 
L 238.535681 303.660562 
L 239.448344 303.933723 
L 238.893589 304.480001 
L 238.660949 304.608546 
L 239.46624 306.367962 
L 242.222127 308.74596 
L 242.821621 309.693962 
L 242.969258 311.308745 
L 243.197424 312.035814 
L 243.197424 312.614239 
L 242.63372 313.767083 
" clip-path="url(#p7b694ee42f)" style="fill: none; stroke: #008000; stroke-width: 1.5"/>
    <path d="M 165.943126 297.193344 
L 166.846841 298.105202 
L 167.893721 298.784038 
L 168.636378 299.683831 
L 168.609534 301.23437 
L 169.128501 301.623991 
L 169.701152 301.913214 
L 165.388369 302.949565 
L 164.207274 304.299259 
L 163.527251 304.608546 
L 162.274575 304.010043 
L 152.816874 293.288925 
L 151.922105 291.067586 
L 151.595515 289.525094 
L 152.400806 290.453004 
L 157.067023 293.152359 
L 158.440493 294.437751 
L 159.733433 296.590831 
L 160.413457 297.49864 
L 161.218748 297.86418 
L 162.050883 297.860164 
L 162.708538 297.623155 
L 162.954599 296.831838 
L 162.569848 295.168853 
L 163.35277 296.345803 
L 164.019373 299.298216 
L 164.614395 299.888684 
L 165.755225 299.900733 
L 166.533673 299.691864 
L 166.681309 298.904559 
L 165.943126 297.193344 
" clip-path="url(#p7b694ee42f)" style="fill: none; stroke: #008000; stroke-width: 1.5"/>
    <path d="M 274.07588 284.319191 
L 278.889733 285.351535 
L 280.697166 287.066751 
L 281.582986 290.453004 
L 281.475614 291.52953 
L 280.974544 292.124018 
L 280.070827 292.369071 
L 278.782362 292.417253 
L 272.286343 290.947076 
L 270.295484 291.248334 
L 268.403049 292.152143 
L 266.537456 293.762927 
L 263.611564 297.900329 
L 262.564686 298.539009 
L 260.967524 298.261845 
L 257.464505 296.454259 
L 257.464505 295.83967 
L 258.242953 295.83967 
L 257.996893 294.83141 
L 258.229532 294.05215 
L 258.739551 293.497805 
L 259.339045 293.144324 
L 259.061666 292.851101 
L 258.538227 292.079854 
L 258.242953 291.802685 
L 259.464312 290.372671 
L 260.180127 290.003119 
L 260.873573 290.453004 
L 261.276218 289.717913 
L 260.873573 288.368233 
L 261.759393 288.452593 
L 263.088125 289.408592 
L 263.906837 289.717913 
L 264.45712 289.609449 
L 266.246658 288.838188 
L 266.913259 288.368233 
L 266.617986 287.392116 
L 266.604564 286.596774 
L 266.846152 286.006289 
L 267.315905 285.66887 
L 267.315905 284.99403 
L 265.521894 283.668453 
L 265.034246 282.97353 
L 264.752394 281.985372 
L 264.940295 281.306516 
L 265.544264 280.957046 
L 266.537457 280.957046 
L 267.731972 283.150273 
L 269.575195 284.017924 
L 274.07588 284.319191 
" clip-path="url(#p7b694ee42f)" style="fill: none; stroke: #008000; stroke-width: 1.5"/>
    <path d="M 141.82017 289.717913 
L 142.616515 291.272442 
L 144.772906 298.081103 
L 144.737115 299.049177 
L 143.967614 299.26207 
L 142.401771 299.213843 
L 141.583057 299.659735 
L 140.509335 300.539436 
L 139.435613 301.170085 
L 138.643744 300.864787 
L 137.740028 300.045343 
L 135.207833 299.21786 
L 134.281748 298.539009 
L 134.281747 297.86418 
L 135.744694 297.104976 
L 137.471597 297.884263 
L 139.207447 299.1536 
L 140.728554 299.888684 
L 140.728554 299.213843 
L 138.097934 296.815771 
L 135.60153 295.891891 
L 135.033352 295.83967 
L 134.48307 296.056586 
L 133.6912 296.872006 
L 133.15434 297.193344 
L 131.006896 297.068826 
L 129.150251 295.514292 
L 128.067582 292.923387 
L 128.242061 289.717913 
L 127.897575 289.717913 
L 127.897576 289.103316 
L 129.11446 289.983027 
L 130.420822 291.52953 
L 131.704814 292.686408 
L 132.809854 292.417253 
L 132.577213 292.0678 
L 132.214833 291.392951 
L 132.000088 290.742216 
L 132.214832 290.453004 
L 132.51458 290.236083 
L 132.134304 289.754047 
L 129.852644 288.074995 
L 129.472368 287.28768 
L 130.147918 286.343709 
L 130.147918 285.66887 
L 125.83066 286.090644 
L 125.079055 286.006289 
L 124.533246 285.572464 
L 123.866644 285.472042 
L 123.280571 285.222994 
L 122.985297 284.319191 
L 123.182146 283.881349 
L 124.220077 283.077969 
L 124.515351 282.29869 
L 123.504263 282.346893 
L 122.591599 282.708414 
L 121.705778 282.873107 
L 120.766272 282.29869 
L 120.766272 281.571632 
L 125.615916 279.185593 
L 127.557563 278.872275 
L 129.839223 279.330201 
L 133.114075 283.343085 
L 134.858873 284.319191 
L 137.292643 284.716864 
L 139.046389 285.817495 
L 140.455649 287.524675 
L 141.82017 289.717913 
" clip-path="url(#p7b694ee42f)" style="fill: none; stroke: #008000; stroke-width: 1.5"/>
    <path d="M 188.196014 282.97353 
L 188.580765 280.185801 
L 190.423987 275.305267 
L 192.553536 271.541432 
L 193.788316 272.127899 
L 191.162171 284.319191 
L 190.115291 287.560844 
L 187.24756 293.497805 
L 181.932635 311.746595 
L 181.395775 312.963705 
L 180.639695 313.385495 
L 179.337807 313.433684 
L 178.680153 312.493714 
L 177.27984 306.685305 
L 176.680345 305.604752 
L 175.942162 304.733075 
L 174.237628 303.26289 
L 175.570833 303.16649 
L 176.425337 302.780854 
L 177.118783 301.949355 
L 177.986707 300.503293 
L 178.496725 298.848331 
L 178.818841 298.374336 
L 179.337807 298.876445 
L 179.615185 299.033112 
L 181.019972 298.539009 
L 180.894705 297.562906 
L 180.653116 296.454259 
L 180.169942 296.880039 
L 179.695715 297.020625 
L 179.230435 296.880039 
L 178.738312 296.454259 
L 179.512287 294.080271 
L 180.67996 292.320858 
L 183.749016 288.629317 
L 185.073273 287.641158 
L 188.196014 282.97353 
" clip-path="url(#p7b694ee42f)" style="fill: none; stroke: #008000; stroke-width: 1.5"/>
    <path d="M 424.388014 274.152417 
L 424.128531 274.642478 
L 424.012211 274.979898 
L 423.891418 275.245013 
L 423.636409 275.502095 
L 424.039054 276.94818 
L 424.186691 277.864033 
L 424.021159 278.703564 
L 423.448507 279.912652 
L 422.267413 281.909051 
L 421.927401 282.893192 
L 422.133198 283.712639 
L 422.133198 284.319191 
L 422.291528 285.496315 
L 421.418038 286.530095 
L 420.831607 287.380028 
L 420.060879 288.127866 
L 417.366995 287.367595 
L 415.124361 287.20233 
L 412.067519 285.950719 
L 408.293045 283.528693 
L 404.017459 282.255018 
L 399.549245 278.498703 
L 398.703615 277.297483 
L 399.411251 275.194079 
L 399.652143 271.043336 
L 399.889257 265.026021 
L 400.081632 264.021795 
L 400.537964 262.941248 
L 401.611686 260.976984 
L 402.054596 259.506798 
L 402.439346 257.80765 
L 402.922521 256.771291 
L 403.674127 257.301522 
L 405.893152 260.60743 
L 406.662653 261.467047 
L 407.898085 262.800247 
L 409.964348 264.278877 
L 412.041897 265.998865 
L 413.55674 265.657723 
L 414.603722 265.965975 
L 415.502964 267.950323 
L 416.093511 268.701483 
L 416.773535 269.155393 
L 420.713793 272.042388 
L 423.30087 272.94333 
L 424.388014 274.152417 
" clip-path="url(#p7b694ee42f)" style="fill: none; stroke: #008000; stroke-width: 1.5"/>
    <path d="M 57.434568 253.200266 
L 56.07452 253.762632 
L 54.624996 252.204074 
L 53.363372 249.785902 
L 51.636469 245.106212 
L 51.269614 242.973238 
L 51.824371 241.567322 
L 53.685489 241.061195 
L 53.891285 243.993532 
L 54.803949 244.503679 
L 55.92241 244.306851 
L 56.718754 245.106212 
L 56.700858 246.26308 
L 55.993991 248.468357 
L 56.141628 249.456516 
L 56.557695 250.541078 
L 56.942446 252.384833 
L 57.434568 253.200266 
" clip-path="url(#p7b694ee42f)" style="fill: none; stroke: #008000; stroke-width: 1.5"/>
    <path d="M 177.821175 280.957046 
L 175.356088 280.957046 
L 174.438951 281.125756 
L 173.414441 281.623851 
L 172.465987 282.379029 
L 171.781489 283.343085 
L 170.783822 284.367394 
L 169.607202 284.210735 
L 167.446336 282.97353 
L 163.768838 282.668245 
L 162.569849 282.29869 
L 162.037462 281.921102 
L 161.124798 281.109688 
L 160.485038 280.957046 
L 159.111569 281.093621 
L 158.386807 281.017299 
L 154.069549 278.197435 
L 152.476862 278.052827 
L 152.056321 278.803988 
L 152.025004 280.957046 
L 151.192869 280.306308 
L 149.899929 278.747751 
L 148.987265 278.197435 
L 147.859857 278.173334 
L 145.783995 278.715616 
L 144.817645 278.197435 
L 149.032004 274.883493 
L 149.770188 273.473561 
L 148.817259 272.071662 
L 148.128288 270.456869 
L 147.403525 269.15941 
L 146.36112 268.701483 
L 145.533459 268.946514 
L 144.262888 269.557083 
L 143.354699 269.436576 
L 142.106497 268.123051 
L 141.390682 267.821782 
L 140.728553 268.701483 
L 140.889612 270.243974 
L 142.795468 273.244598 
L 142.603093 274.891527 
L 142.330189 275.016051 
L 140.397489 274.690682 
L 140.254326 274.409499 
L 140.334855 274.007808 
L 140.321434 273.473561 
L 140.478018 273.545865 
L 140.630129 273.148192 
L 140.576443 272.312676 
L 139.780099 270.123466 
L 139.654831 269.067022 
L 139.780099 268.026644 
L 140.133532 267.074639 
L 140.066425 266.291344 
L 139.220869 265.765129 
L 137.015265 265.194729 
L 136.321819 264.744837 
L 135.704429 264.190505 
L 135.440472 263.708477 
L 135.324153 263.170212 
L 134.814135 262.278461 
L 134.688867 261.683959 
L 134.814135 261.081423 
L 135.324153 260.189672 
L 135.440472 259.63534 
L 135.324153 258.550777 
L 134.688867 256.261144 
L 134.858873 252.862847 
L 134.295169 252.420987 
L 133.436191 252.348683 
L 131.83903 252.525426 
L 131.109794 252.236209 
L 130.331345 251.529235 
L 128.993667 249.761801 
L 129.919752 249.408313 
L 130.948735 249.27977 
L 131.852451 248.910218 
L 132.402734 247.80557 
L 129.400786 246.455889 
L 129.852644 246.552295 
L 131.275326 246.455889 
L 130.707148 245.299023 
L 129.705007 244.672388 
L 127.521773 244.371119 
L 126.752272 244.045751 
L 124.891154 241.679797 
L 124.891154 241.061195 
L 126.363048 241.744067 
L 127.915471 243.125878 
L 129.445525 244.142155 
L 130.868206 243.76055 
L 125.436962 238.827797 
L 123.396891 238.369871 
L 123.817432 237.34556 
L 124.345345 236.935836 
L 124.962735 236.718926 
L 125.67855 236.2851 
L 127.732043 233.585742 
L 130.6982 232.979189 
L 131.704815 233.163968 
L 131.892716 233.686163 
L 131.919559 234.513648 
L 132.402734 235.610262 
L 135.046774 237.084463 
L 137.910033 236.044085 
L 143.354699 232.240081 
L 150.463633 229.821906 
L 152.883981 228.006268 
L 154.239555 227.524239 
L 155.715923 227.415785 
L 156.15436 227.524239 
L 156.19015 227.82149 
L 156.561479 229.540722 
L 157.335454 229.24749 
L 157.527829 228.500345 
L 157.344402 226.479847 
L 158.104955 226.270967 
L 159.796067 227.074347 
L 163.589885 229.753619 
L 164.448862 230.834164 
L 165.612061 232.693989 
L 166.131027 232.979189 
L 167.137641 233.103713 
L 168.050305 233.453186 
L 169.714574 234.642189 
L 168.815332 234.272632 
L 167.956354 234.272632 
L 167.321069 234.786796 
L 167.070533 235.94768 
L 167.271856 236.381506 
L 168.081622 237.044295 
L 168.197942 237.634776 
L 167.911616 238.458242 
L 167.459758 238.683187 
L 166.909475 238.719342 
L 166.318928 238.984456 
L 164.260961 242.009182 
L 165.164677 243.656111 
L 167.115272 243.563722 
L 168.197942 241.370493 
L 168.815332 241.539205 
L 172.358614 239.65528 
L 174.438951 238.984456 
L 174.680538 238.675155 
L 174.573166 238.000315 
L 174.304736 237.325476 
L 174.049727 237.020192 
L 173.557604 236.887635 
L 173.029691 236.550215 
L 172.58678 236.096303 
L 172.358614 235.610262 
L 172.519673 234.742608 
L 173.204171 235.067978 
L 174.237628 236.2851 
L 174.935547 235.188485 
L 174.756594 233.633945 
L 174.224206 231.898642 
L 173.861825 230.215562 
L 174.130256 230.669472 
L 174.980286 231.565241 
L 175.002655 229.902244 
L 174.649221 226.789146 
L 175.6961 226.728894 
L 177.306683 228.576669 
L 179.901512 232.979189 
L 180.183364 235.272841 
L 181.771577 237.020192 
L 182.120537 238.381922 
L 182.004217 239.177266 
L 181.494199 239.731599 
L 179.892564 240.79206 
L 177.338 241.92081 
L 173.539709 241.559288 
L 172.600202 241.768167 
L 171.947021 242.354634 
L 171.651747 243.611925 
L 172.161765 244.238562 
L 173.047586 244.274713 
L 173.861825 243.76055 
L 173.548656 242.937085 
L 173.955776 241.924827 
L 178.738313 243.085712 
L 179.5615 243.840888 
L 184.98827 251.906822 
L 185.341703 252.774474 
L 186.733068 257.036405 
L 187.059658 258.647182 
L 186.652539 258.647182 
L 186.003832 257.602789 
L 185.001691 256.92795 
L 184.089027 257.201099 
L 183.686382 258.960501 
L 183.999551 260.169587 
L 185.466971 262.579727 
L 185.905407 264.045896 
L 186.008306 266.170836 
L 185.869616 268.123051 
L 185.502761 269.790064 
L 184.666153 271.810564 
L 184.505095 272.545657 
L 184.437987 274.521972 
L 184.259033 275.040152 
L 182.907933 276.908011 
L 181.525516 280.209903 
L 180.653117 280.957046 
L 179.982041 281.125756 
L 177.821175 280.957046 
L 177.821175 280.957046 
" clip-path="url(#p7b694ee42f)" style="fill: none; stroke: #008000; stroke-width: 1.5"/>
    <path d="M 284.992054 219.36993 
L 288.186377 227.524239 
L 288.226641 227.946016 
L 286.293942 230.215562 
L 285.457333 230.476662 
L 284.441771 231.103299 
L 283.515686 231.886595 
L 282.916191 232.609637 
L 281.726149 232.959108 
L 280.545055 231.099283 
L 279.757659 228.391889 
L 279.739763 226.174563 
L 280.334784 224.921288 
L 281.046125 224.085772 
L 281.752992 223.435034 
L 282.334592 222.740112 
L 282.925139 221.510939 
L 283.855698 219.052596 
L 284.589408 218.088542 
L 284.817574 218.679026 
L 284.902577 218.94414 
L 284.992054 219.36993 
" clip-path="url(#p7b694ee42f)" style="fill: none; stroke: #008000; stroke-width: 1.5"/>
    <path d="M 171.947021 201.783944 
L 172.698626 200.542722 
L 173.137063 198.996212 
L 173.092324 197.317153 
L 172.358615 195.662186 
L 171.352 194.927093 
L 170.238013 194.445071 
L 169.526672 193.396658 
L 169.701153 190.938311 
L 170.264856 189.648892 
L 171.096991 188.78124 
L 171.803858 188.998151 
L 172.210978 193.139572 
L 173.092324 194.850775 
L 174.331578 195.963459 
L 175.731891 196.397278 
L 175.244242 197.37339 
L 175.025024 198.421797 
L 175.07871 199.462172 
L 175.356088 200.442299 
L 176.304543 201.800011 
L 176.962197 201.406357 
L 177.431951 200.353928 
L 177.821175 199.767457 
L 177.986707 200.42623 
L 177.203785 201.872315 
L 175.731891 203.80846 
L 175.458987 205.591965 
L 175.517146 208.885826 
L 174.980286 210.613087 
L 173.199697 212.300187 
L 171.271471 211.761924 
L 169.795103 209.456219 
L 169.316402 205.832976 
L 169.629571 203.832562 
L 170.202223 203.005083 
L 170.998567 202.587323 
L 171.947021 201.783944 
" clip-path="url(#p7b694ee42f)" style="fill: none; stroke: #008000; stroke-width: 1.5"/>
    <path d="M 253.361993 297.86418 
L 254.382028 297.731634 
L 255.446802 297.386175 
L 256.444469 297.362075 
L 257.290026 298.201598 
L 258.8335 300.63585 
L 260.49777 302.648313 
L 260.49777 303.26289 
L 255.634704 307.396282 
L 254.833887 308.348274 
L 252.391169 313.433684 
L 251.840886 313.847437 
L 250.364518 315.703239 
L 249.78292 316.12901 
L 248.982101 317.502808 
L 248.955258 320.63599 
L 249.572648 326.235555 
L 249.438433 329.774445 
L 248.342343 329.890909 
L 247.197039 328.372522 
L 246.946503 326.97466 
L 246.159107 325.849934 
L 244.360622 322.154387 
L 243.94903 320.905105 
L 244.029558 318.856506 
L 244.691688 317.269815 
L 246.203846 314.779343 
L 245.089859 314.530296 
L 244.315884 313.984005 
L 244.12351 312.975745 
L 244.700635 311.348912 
L 244.074297 310.963292 
L 243.734285 310.457157 
L 243.197424 309.324394 
L 240.647335 306.560758 
L 240.19995 305.283406 
L 240.08363 304.492078 
L 240.137317 303.435612 
L 239.788357 302.648313 
L 238.830955 301.503488 
L 237.980925 300.804549 
L 237.38143 299.828443 
L 237.157738 297.86418 
L 237.144316 296.056586 
L 236.960888 294.662718 
L 236.406133 293.690613 
L 235.278724 293.144324 
L 235.278725 292.417253 
L 237.385903 290.685994 
L 237.909343 290.453004 
L 238.696739 290.75427 
L 239.761515 292.107947 
L 240.365483 292.417253 
L 240.960503 292.03164 
L 242.213179 290.645812 
L 242.44582 290.790402 
L 242.803725 291.33673 
L 243.582174 290.886836 
L 244.700635 289.717913 
L 244.700635 289.103316 
L 244.12351 288.332065 
L 243.090052 285.319399 
L 242.445819 284.319191 
L 238.754899 282.507569 
L 237.70802 282.29869 
L 237.412747 282.089812 
L 236.683511 281.161908 
L 236.231653 280.957046 
L 232.755478 280.748167 
L 231.717546 280.1617 
L 230.822778 279.294049 
L 230.026434 278.197435 
L 232.97917 278.848173 
L 238.786216 281.631885 
L 241.658423 282.29869 
L 240.441538 280.009057 
L 237.036944 277.377988 
L 235.618736 274.891527 
L 240.365482 273.991741 
L 240.674177 273.594068 
L 240.531015 272.802739 
L 239.345447 271.782446 
L 236.218231 272.02346 
L 235.278724 270.726001 
L 236.092964 269.83425 
L 236.558243 268.677382 
L 236.468766 267.544617 
L 235.618736 266.737218 
L 234.379482 266.76132 
L 233.453397 267.620937 
L 232.661527 268.713535 
L 231.869657 269.436576 
L 231.144895 269.372306 
L 229.118244 268.416283 
L 224.984415 267.351806 
L 223.986748 266.737218 
L 223.235142 267.146942 
L 219.432377 265.395574 
L 218.72551 265.572319 
L 217.222299 266.456036 
L 216.448325 266.737218 
L 212.658981 266.737218 
L 212.658981 267.412058 
L 213.786389 268.086897 
L 211.885006 268.014594 
L 210.51601 267.500431 
L 209.657033 266.098533 
L 209.28123 263.371057 
L 210.082048 263.977608 
L 210.891813 264.01376 
L 211.562889 263.37909 
L 211.907375 262.021379 
L 211.343671 262.463238 
L 210.757598 262.676134 
L 209.469132 262.752454 
L 209.294652 262.214189 
L 209.446762 259.808066 
L 209.093329 259.265785 
L 208.10461 258.6512 
L 205.080293 255.795184 
L 204.570275 254.879331 
L 205.071345 254.638316 
L 205.867689 254.54191 
L 206.516396 254.20449 
L 206.619294 253.200266 
L 206.189805 252.710205 
L 205.402409 252.477223 
L 204.556853 252.43304 
L 203.993149 252.525426 
L 203.612873 253.059674 
L 203.362337 253.891174 
L 202.959692 254.54191 
L 202.114136 254.54191 
L 201.76965 254.100053 
L 200.991201 251.906822 
L 200.991201 251.175748 
L 202.467569 251.328392 
L 203.254965 251.252068 
L 203.805248 250.83833 
L 204.288423 250.191606 
L 204.919234 249.661377 
L 205.608206 249.287805 
L 206.243492 249.155246 
L 207.402217 248.621001 
L 207.943551 247.44003 
L 207.885391 246.259063 
L 207.214315 245.720797 
L 207.42906 244.720588 
L 206.968254 242.499245 
L 205.867689 238.984456 
L 205.178717 237.755285 
L 204.476324 236.923785 
L 203.62182 236.449791 
L 202.489938 236.2851 
L 201.510167 237.004126 
L 200.883829 237.196935 
L 200.615399 236.650639 
L 200.718297 235.321043 
L 201.03594 234.602019 
L 201.563853 234.320833 
L 202.302037 234.260583 
L 203.751562 233.706251 
L 204.328687 232.284268 
L 204.176577 230.428458 
L 203.429445 228.536501 
L 201.000149 225.411349 
L 198.324792 223.780489 
L 192.316422 222.13356 
L 192.316422 221.39445 
L 200.991201 222.13356 
L 200.074064 220.474577 
L 196.642627 218.960207 
L 195.322844 218.088542 
L 193.980691 215.794893 
L 193.068028 215.328932 
L 190.200295 215.11202 
L 189.323422 214.59384 
L 189.323422 213.979256 
L 197.98478 215.328932 
L 199.77879 215.015614 
L 203.214701 213.625763 
L 205.116084 213.312447 
L 205.116083 213.979256 
L 204.507641 213.890884 
L 203.926042 213.93105 
L 203.362338 214.147961 
L 202.865741 214.59384 
L 203.729193 216.317089 
L 205.151874 217.666764 
L 206.757984 218.164861 
L 208.153822 217.353449 
L 205.867689 215.328932 
L 206.619294 214.59384 
L 207.133786 215.128083 
L 208.050924 215.361064 
L 210.032836 215.328932 
L 210.92313 214.967411 
L 212.793196 213.60568 
L 214.676683 213.171858 
L 215.531187 212.689825 
L 216.179894 211.769956 
L 216.765968 208.170811 
L 216.819653 207.54418 
L 216.622805 206.760879 
L 215.665402 205.342915 
L 215.320917 204.543553 
L 216.721229 205.487526 
L 218.072329 205.720503 
L 219.351848 205.17019 
L 220.54189 203.80846 
L 222.420903 204.226215 
L 223.942009 201.542932 
L 224.232809 197.6385 
L 222.411955 194.372766 
L 220.819268 193.697923 
L 217.293881 193.436825 
L 212.909516 191.75776 
L 211.665788 190.661149 
L 211.15577 188.92183 
L 218.188649 192.336194 
L 219.638174 191.986724 
L 228.11163 193.3364 
L 229.118244 194.300462 
L 231.399904 194.167902 
L 235.278724 192.962833 
L 237.278532 191.717589 
L 238.40594 191.492646 
L 239.036751 192.348245 
L 238.795164 193.3364 
L 237.251688 195.216314 
L 236.781935 196.397278 
L 237.426168 197.429626 
L 237.068261 198.084379 
L 236.18244 198.228987 
L 235.278724 197.746963 
L 235.618736 196.397278 
L 233.869464 196.493686 
L 233.158123 196.883325 
L 232.621262 197.746963 
L 235.345832 202.591337 
L 236.388237 205.294717 
L 235.618736 207.242913 
L 234.782128 207.391537 
L 233.068647 206.917543 
L 232.24546 207.242913 
L 231.238845 208.713097 
L 230.594612 209.255381 
L 229.57905 209.267428 
L 229.57905 210.002525 
L 230.48724 210.299771 
L 233.198388 210.002525 
L 233.936572 209.665105 
L 234.804497 208.978214 
L 235.770847 208.460031 
L 236.781935 208.588571 
L 237.14879 209.375881 
L 237.721442 210.998711 
L 238.150931 212.589409 
L 238.097245 213.312447 
L 233.677089 214.123858 
L 232.701792 214.533585 
L 232.299146 215.152184 
L 232.997065 215.943515 
L 233.788935 216.064024 
L 236.258496 215.871214 
L 236.781935 215.634212 
L 237.198002 215.136122 
L 238.11514 216.088124 
L 239.448345 218.088542 
L 239.842043 219.390015 
L 239.806252 219.876063 
L 239.484136 220.474577 
L 239.036751 222.13356 
L 240.016523 221.197618 
L 240.727864 220.261686 
L 243.197424 214.95938 
L 243.07663 214.252403 
L 242.445819 212.629571 
L 242.620299 211.49681 
L 243.045314 210.074827 
L 243.94903 207.857499 
L 244.767743 206.977793 
L 246.713864 206.41141 
L 247.698109 205.832976 
L 248.592877 203.045252 
L 247.465469 199.823693 
L 246.168055 196.927508 
L 246.570701 195.047599 
L 247.554946 195.131957 
L 249.49212 197.212711 
L 250.516629 197.746963 
L 251.044543 198.176769 
L 251.026647 199.168944 
L 250.704531 201.048852 
L 250.941644 202.298107 
L 251.411398 203.049266 
L 251.827465 203.80846 
L 252.860922 206.68858 
L 253.83622 210.761714 
L 253.997278 214.581789 
L 252.57907 216.678613 
L 250.592685 215.947534 
L 249.639757 216.084105 
L 248.843413 218.847732 
L 246.910713 220.751743 
L 246.203846 222.13356 
L 247.317832 222.382609 
L 248.897099 221.643498 
L 250.163196 220.281769 
L 250.328728 218.70313 
L 251.205601 218.329553 
L 252.109317 218.622788 
L 252.896713 219.462325 
L 253.361993 220.719613 
L 251.652985 220.125109 
L 251.424819 220.354076 
L 251.769305 221.257874 
L 252.605913 221.944765 
L 254.458084 222.740112 
L 254.941259 220.67141 
L 256.202882 217.534209 
L 256.368414 215.328932 
L 254.082281 204.543553 
L 254.082281 201.048852 
L 253.880958 199.638922 
L 252.57907 194.372766 
L 251.724566 192.998985 
L 250.7269 192.472769 
L 249.532384 192.545074 
L 245.331447 194.280372 
L 243.747707 194.569588 
L 242.821622 193.697923 
L 243.752181 191.275735 
L 246.597544 188.817392 
L 251.827465 185.551652 
L 260.233814 178.345331 
L 264.618179 175.874936 
L 269.199392 176.055698 
L 273.950612 178.807272 
L 277.865224 178.807272 
L 278.925524 179.38571 
L 280.849276 181.141091 
L 282.482228 181.844052 
L 285.332066 184.262222 
L 284.589408 185.816763 
L 282.334592 188.92183 
L 281.5293 190.588844 
L 280.035037 194.517374 
L 279.32817 195.662186 
L 279.32817 196.397278 
L 280.844802 198.626658 
L 281.623251 200.145048 
L 281.958789 201.422424 
L 282.209324 203.27823 
L 282.808819 205.447355 
L 283.560424 207.391537 
L 284.249396 208.588571 
L 284.016756 209.552625 
L 283.900436 210.870173 
L 283.837802 212.966996 
L 283.462 215.328932 
L 283.533581 215.802924 
L 284.249396 217.353449 
L 283.095145 218.883884 
L 280.885067 223.246241 
L 278.809204 224.712409 
L 278.451297 225.921496 
L 277.923384 227.098448 
L 276.706499 227.524239 
L 275.802783 227.194854 
L 275.154076 226.648556 
L 274.433787 226.210712 
L 273.328748 226.174563 
L 269.355977 228.524447 
L 264.788184 233.388914 
L 262.032298 239.177266 
L 263.504192 244.371119 
L 266.175075 246.805361 
L 267.114582 247.130729 
L 270.496806 247.375762 
L 271.418418 247.80557 
L 273.798502 249.874274 
L 275.04223 251.400696 
L 275.583564 252.862847 
L 275.677515 254.557978 
L 275.92805 255.987994 
L 276.706499 258.647182 
L 275.583564 260.000878 
L 272.715832 262.0977 
L 261.191216 264.873378 
L 260.32329 265.845467 
L 258.91403 266.769355 
L 257.800044 268.440385 
L 257.137915 270.448835 
L 257.464505 272.127899 
L 257.048438 272.979482 
L 256.583159 273.341003 
L 256.09551 273.260665 
L 255.581018 272.802739 
L 255.988138 270.681815 
L 255.357326 269.34017 
L 254.243339 268.970616 
L 251.948259 270.770186 
L 251.827465 271.79048 
L 252.127212 272.196186 
L 253.706478 273.473561 
L 258.319009 273.887302 
L 260.412767 274.618378 
L 260.873573 276.908011 
L 260.564878 277.8801 
L 260.215918 278.289824 
L 259.813272 278.498703 
L 259.339045 278.872275 
L 258.202689 279.518995 
L 257.656881 280.041192 
L 258.055053 280.282206 
L 260.121967 284.99403 
L 260.063808 286.869923 
L 259.330097 287.88219 
L 258.202689 288.29191 
L 256.914223 288.368233 
L 256.064193 288.717695 
L 254.216496 290.187896 
L 252.954873 290.453004 
L 251.035595 289.621504 
L 248.056016 286.701213 
L 246.203846 286.343709 
L 246.257532 286.926159 
L 246.570701 287.018548 
L 246.105422 287.440311 
L 245.899625 287.641158 
L 245.488031 287.753653 
L 245.729618 289.633559 
L 245.33592 290.758288 
L 244.821429 291.730363 
L 244.700635 293.144324 
L 245.103281 294.248969 
L 245.828043 294.90372 
L 246.660177 295.008167 
L 247.358098 294.437751 
L 246.946503 293.144324 
L 247.425205 293.080043 
L 248.825518 292.417253 
L 249.272901 292.967581 
L 250.163195 295.168853 
L 250.673214 295.562496 
L 252.458276 297.370108 
L 253.361993 297.86418 
L 253.361993 297.86418 
" clip-path="url(#p7b694ee42f)" style="fill: none; stroke: #008000; stroke-width: 1.5"/>
    <path d="M 224.32676 119.927549 
L 224.179123 118.477451 
L 224.800987 117.959269 
L 229.489573 117.4652 
L 231.869657 116.55336 
L 231.869657 117.292469 
L 231.637017 117.30853 
L 231.458064 117.441086 
L 231.118051 117.903036 
L 230.142754 118.360962 
L 229.386675 119.365185 
L 228.742441 120.481889 
L 228.11163 121.333471 
L 227.185544 121.707044 
L 226.058136 121.586536 
L 225.006784 120.988009 
L 224.32676 119.927549 
" clip-path="url(#p7b694ee42f)" style="fill: none; stroke: #008000; stroke-width: 1.5"/>
    <path d="M 76.645245 115.151455 
L 75.920483 116.067304 
L 73.643297 117.903036 
L 73.361445 119.6062 
L 68.97708 120.803237 
L 67.438079 121.638746 
L 66.89227 121.349528 
L 65.424849 118.103885 
L 64.825355 117.292469 
L 63.474255 115.878513 
L 62.154471 115.211709 
L 61.805512 115.151455 
L 60.100978 115.798172 
L 59.537274 115.705797 
L 59.725175 114.536869 
L 59.984658 114.042793 
L 60.396252 113.621014 
L 60.888374 113.307694 
L 61.40734 113.187188 
L 61.657875 112.753366 
L 61.568398 111.801363 
L 61.371549 110.865419 
L 61.219438 110.487841 
L 62.745018 109.355073 
L 66.63726 108.812794 
L 68.01073 107.0574 
L 67.321758 107.125694 
L 66.637261 107.053386 
L 65.988554 106.836475 
L 65.389059 106.446843 
L 65.697754 105.506881 
L 66.798319 104.044723 
L 67.259125 103.008368 
L 67.080171 103.088708 
L 66.963851 102.277297 
L 66.89227 100.654466 
L 67.066749 100.309014 
L 67.491765 100.280891 
L 67.979413 100.349182 
L 68.355216 100.317044 
L 69.934482 99.730583 
L 73.160122 99.200349 
L 74.770705 98.300558 
L 75.974168 98.714303 
L 77.079207 97.292317 
L 78.931378 93.520452 
L 80.193001 94.323835 
L 80.998293 93.219179 
L 81.615683 91.929762 
L 82.309128 92.170768 
L 81.991485 92.966121 
L 81.347253 94.195283 
L 81.186194 94.926367 
L 81.293566 95.352152 
L 81.843849 96.725939 
L 81.969116 97.561451 
L 81.843849 97.770326 
L 81.186194 100.99188 
L 80.743284 102.221058 
L 80.461432 102.666933 
L 80.058786 103.008368 
L 80.045365 101.835427 
L 79.767986 101.08026 
L 79.347445 100.614298 
L 78.931378 100.317044 
L 77.62949 101.36947 
L 77.401324 101.726976 
L 77.226844 102.767347 
L 77.370007 103.402033 
L 77.620542 103.85995 
L 77.808444 104.366074 
L 78.255827 107.655925 
L 78.739003 108.668176 
L 79.682983 109.0779 
L 79.334023 109.571983 
L 78.985064 109.796931 
L 78.59584 109.849147 
L 78.15293 109.821025 
L 78.560049 110.110255 
L 78.931378 110.487841 
L 78.202142 111.588463 
L 77.374481 113.825879 
L 76.645245 115.151455 
" clip-path="url(#p7b694ee42f)" style="fill: none; stroke: #008000; stroke-width: 1.5"/>
    <path d="M 203.993149 57.055036 
L 205.509781 57.018882 
L 206.145067 57.255874 
L 206.619295 57.729865 
L 207.012992 58.926913 
L 206.970413 59.969384 
L 206.564243 60.812316 
L 205.34175 60.56626 
L 204.041892 60.1145 
L 199.828003 61.10406 
L 200.713824 61.839154 
L 201.344475 63.308589 
L 201.176039 64.909014 
L 199.860255 66.332763 
L 199.109895 67.533177 
L 198.649238 68.864624 
L 197.75303 69.930858 
L 196.052622 70.326151 
L 194.956283 69.45516 
L 193.518861 66.790057 
L 191.579454 66.430826 
L 190.054608 65.643489 
L 189.081835 64.727311 
L 188.196014 63.739151 
L 188.196014 63.120553 
L 190.034005 62.729218 
L 191.8393 61.010005 
L 193.232242 59.789518 
L 195.445978 59.6563 
L 196.722159 59.273201 
L 197.691887 58.205337 
L 201.771232 58.232356 
L 203.993149 57.055036 
" clip-path="url(#p7b694ee42f)" style="fill: none; stroke: #008000; stroke-width: 1.5"/>
   </g>
  </g>
 </g>
 <defs>
  <clipPath id="p7b694ee42f">
   <rect x="17.013185" y="0" width="426.773631" height="345.6"/>
  </clipPath>
 </defs>
</svg>
