<?xml version="1.0" encoding="utf-8" standalone="no"?>
<!DOCTYPE svg PUBLIC "-//W3C//DTD SVG 1.1//EN"
  "http://www.w3.org/Graphics/SVG/1.1/DTD/svg11.dtd">
<svg xmlns:xlink="http://www.w3.org/1999/xlink" width="460.8pt" height="345.6pt" viewBox="0 0 460.8 345.6" xmlns="http://www.w3.org/2000/svg" version="1.1">
 <metadata>
  <rdf:RDF xmlns:dc="http://purl.org/dc/elements/1.1/" xmlns:cc="http://creativecommons.org/ns#" xmlns:rdf="http://www.w3.org/1999/02/22-rdf-syntax-ns#">
   <cc:Work>
    <dc:type rdf:resource="http://purl.org/dc/dcmitype/StillImage"/>
    <dc:date>2025-01-23T13:20:55.426013</dc:date>
    <dc:format>image/svg+xml</dc:format>
    <dc:creator>
     <cc:Agent>
      <dc:title>Matplotlib v3.8.2, https://matplotlib.org/</dc:title>
     </cc:Agent>
    </dc:creator>
   </cc:Work>
  </rdf:RDF>
 </metadata>
 <defs>
  <style type="text/css">*{stroke-linejoin: round; stroke-linecap: butt}</style>
 </defs>
 <g id="figure_1">
  <g id="patch_1">
   <path d="M 0 345.6 
L 460.8 345.6 
L 460.8 0 
L 0 0 
z
" style="fill: none"/>
  </g>
  <g id="axes_1">
   <g id="LineCollection_1">
    <path d="M 179.118402 258.500211 
L 157.180261 243.289365 
L 151.253693 239.153018 
L 151.059807 238.808323 
L 90.535309 108.891261 
L 124.864883 56.528773 
L 163.373279 42.827013 
L 189.430211 34.535259 
L 241.073654 24.256012 
L 311.429208 15.709091 
L 311.940056 15.745376 
L 317.316825 17.513987 
L 320.830284 19.09532 
L 325.071426 21.961851 
L 325.313987 23.197889 
L 326.526793 31.604351 
L 326.534143 32.561812 
L 326.36141 33.509909 
L 326.037995 34.287115 
L 204.190563 256.616366 
L 179.118402 258.500211 
" clip-path="url(#pa259bd5dc3)" style="fill: none; stroke: #1f77b4; stroke-width: 1.5"/>
    <path d="M 237.588279 329.890909 
L 236.639102 329.820864 
L 235.840404 329.378474 
L 234.428214 328.348074 
L 234.428214 328.06605 
L 235.643624 327.446704 
L 236.089274 327.420898 
L 236.517561 327.487256 
L 237.345197 327.728728 
L 237.588279 329.584923 
L 237.588279 329.890909 
" clip-path="url(#pa259bd5dc3)" style="fill: none; stroke: #1f77b4; stroke-width: 1.5"/>
    <path d="M 335.072799 305.684799 
L 334.630043 305.493096 
L 334.256739 305.067296 
L 334.065746 304.641496 
L 334.19018 304.446107 
L 335.784682 302.424015 
L 335.909117 302.280239 
L 339.54377 301.716191 
L 339.882348 301.683012 
L 339.931543 301.970565 
L 339.708718 303.491281 
L 335.486617 305.533649 
L 335.072799 305.684799 
" clip-path="url(#pa259bd5dc3)" style="fill: none; stroke: #1f77b4; stroke-width: 1.5"/>
    <path d="M 259.040256 324.608034 
L 218.09832 310.661687 
L 215.647244 308.186146 
L 215.647244 307.568643 
L 217.348817 297.614867 
L 217.855238 295.421349 
L 218.723388 293.7587 
L 223.587919 290.391005 
L 223.888878 290.407595 
L 315.316608 307.229477 
L 315.316608 312.543688 
L 314.098304 316.154697 
L 313.765514 316.978649 
L 312.466183 319.741743 
L 312.266509 319.966625 
L 309.132489 321.408079 
L 308.626068 321.540796 
L 269.015295 324.608034 
L 259.040256 324.608034 
" clip-path="url(#pa259bd5dc3)" style="fill: none; stroke: #1f77b4; stroke-width: 1.5"/>
    <path d="M 344.30123 303.209258 
L 343.328902 301.970565 
L 343.004793 301.555825 
L 342.764605 301.041546 
L 341.870411 294.831496 
L 341.9225 294.228739 
L 345.030475 285.215041 
L 345.53979 284.877719 
L 347.056158 284.000312 
L 347.313709 283.945013 
L 347.524959 284.042708 
L 347.721739 284.258373 
L 347.895369 299.159545 
L 347.721739 300.118057 
L 345.076777 302.683919 
L 344.723729 302.988063 
L 344.30123 303.209258 
" clip-path="url(#pa259bd5dc3)" style="fill: none; stroke: #1f77b4; stroke-width: 1.5"/>
    <path d="M 208.826482 283.9487 
L 207.732614 282.571761 
L 207.437443 282.074072 
L 207.20883 281.533987 
L 206.881827 280.547826 
L 207.0352 280.52755 
L 208.44739 281.666704 
L 208.979855 282.328446 
L 209.069564 283.9487 
L 208.826482 283.9487 
" clip-path="url(#pa259bd5dc3)" style="fill: none; stroke: #1f77b4; stroke-width: 1.5"/>
    <path d="M 196.889425 270.002353 
L 194.701688 268.148001 
L 194.516483 267.856761 
L 193.972442 266.879816 
L 193.651227 261.342567 
L 193.720679 260.883587 
L 194.823229 258.938914 
L 195.248622 258.570256 
L 195.668228 258.839376 
L 199.953993 263.945295 
L 200.576167 264.688142 
L 200.911851 265.464168 
L 199.06848 269.648441 
L 198.886169 269.722172 
L 196.889425 270.002353 
" clip-path="url(#pa259bd5dc3)" style="fill: none; stroke: #1f77b4; stroke-width: 1.5"/>
    <path d="M 298.451355 260.341659 
L 295.962659 260.181293 
L 294.880366 259.993277 
L 294.7704 259.954568 
L 294.538894 259.622776 
L 294.382627 259.311259 
L 294.304493 258.990526 
L 294.495486 258.839376 
L 295.641444 258.017268 
L 296.891579 258.561039 
L 298.746525 259.738903 
L 298.451355 260.341659 
" clip-path="url(#pa259bd5dc3)" style="fill: none; stroke: #1f77b4; stroke-width: 1.5"/>
    <path d="M 367.208804 281.191135 
L 365.510125 280.055667 
L 364.783773 278.352465 
L 363.788295 269.045684 
L 368.019077 263.969258 
L 368.184026 263.786772 
L 371.448268 260.800639 
L 378.066462 257.420042 
L 379.226889 256.835718 
L 382.621354 255.57675 
L 382.925206 255.552787 
L 383.234846 255.834811 
L 383.541592 256.338029 
L 383.541592 256.616366 
L 383.420051 259.311259 
L 378.202472 273.712899 
L 368.878545 280.116496 
L 367.208804 281.191135 
" clip-path="url(#pa259bd5dc3)" style="fill: none; stroke: #1f77b4; stroke-width: 1.5"/>
    <path d="M 284.219489 260.973909 
L 283.501818 260.900177 
L 281.846546 260.402488 
L 281.198328 260.048576 
L 281.44141 254.762015 
L 281.771307 254.555566 
L 281.92468 254.481834 
L 283.20086 254.900261 
L 284.424951 255.812691 
L 285.377021 256.985025 
L 285.811096 258.194224 
L 285.735856 259.093751 
L 285.40596 259.998807 
L 284.876388 260.697415 
L 284.219489 260.973909 
" clip-path="url(#pa259bd5dc3)" style="fill: none; stroke: #1f77b4; stroke-width: 1.5"/>
    <path d="M 353.654095 259.053198 
L 352.895911 258.903892 
L 350.656085 257.574878 
L 350.013654 256.841248 
L 349.926839 256.479963 
L 349.952884 255.569376 
L 350.019442 255.138046 
L 350.14677 254.762015 
L 352.108788 254.481834 
L 352.560226 254.80994 
L 355.048922 257.267048 
L 355.170463 257.405295 
L 355.222552 257.543542 
L 355.268853 257.884551 
L 355.057603 258.339844 
L 354.684299 258.760115 
L 354.244437 258.98131 
L 353.654095 259.053198 
" clip-path="url(#pa259bd5dc3)" style="fill: none; stroke: #1f77b4; stroke-width: 1.5"/>
    <path d="M 315.195067 253.217336 
L 314.598937 252.959275 
L 313.35459 251.38879 
L 313.195429 249.589737 
L 313.371953 249.213706 
L 316.775099 247.313272 
L 317.883437 247.3741 
L 319.205918 248.181462 
L 320.236122 249.180526 
L 320.467629 249.812776 
L 320.253485 250.039501 
L 316.045853 253.136231 
L 315.195067 253.217336 
" clip-path="url(#pa259bd5dc3)" style="fill: none; stroke: #1f77b4; stroke-width: 1.5"/>
    <path d="M 369.434161 252.29569 
L 368.910377 252.29016 
L 366.482452 250.122449 
L 367.472143 248.266254 
L 368.548648 247.488384 
L 369.396541 247.003599 
L 370.073698 246.913277 
L 370.632207 248.266254 
L 370.632207 251.698463 
L 369.842191 252.177719 
L 369.434161 252.29569 
" clip-path="url(#pa259bd5dc3)" style="fill: none; stroke: #1f77b4; stroke-width: 1.5"/>
    <path d="M 267.047489 249.195273 
L 266.133038 249.132601 
L 265.594785 248.926152 
L 263.482288 247.300369 
L 262.996124 246.904061 
L 262.677803 246.074579 
L 263.418624 246.0414 
L 263.65013 246.074579 
L 266.486086 247.927088 
L 267.047489 248.915092 
L 267.047489 249.195273 
" clip-path="url(#pa259bd5dc3)" style="fill: none; stroke: #1f77b4; stroke-width: 1.5"/>
    <path d="M 271.648682 247.370414 
L 270.734231 247.313272 
L 272.059606 244.528058 
L 273.188201 243.742815 
L 273.538354 243.599038 
L 274.944757 243.632218 
L 274.860836 244.218384 
L 272.945119 246.295775 
L 271.648682 247.370414 
" clip-path="url(#pa259bd5dc3)" style="fill: none; stroke: #1f77b4; stroke-width: 1.5"/>
    <path d="M 153.759752 244.528058 
L 152.787424 243.938204 
L 152.987099 242.63684 
L 153.10864 242.148368 
L 153.273588 242.05436 
L 153.837885 242.347443 
L 153.892868 242.850662 
L 153.759752 244.528058 
" clip-path="url(#pa259bd5dc3)" style="fill: none; stroke: #1f77b4; stroke-width: 1.5"/>
    <path d="M 244.406147 246.721575 
L 244.261456 246.06905 
L 244.406147 243.599038 
L 245.037002 242.430391 
L 245.375581 242.05436 
L 247.722479 241.280177 
L 251.744905 241.418424 
L 252.196343 242.05436 
L 252.196343 245.007313 
L 251.895384 245.342793 
L 251.21244 245.693018 
L 250.0115 246.074579 
L 244.406147 246.721575 
" clip-path="url(#pa259bd5dc3)" style="fill: none; stroke: #1f77b4; stroke-width: 1.5"/>
    <path d="M 255.706561 242.358503 
L 255.171202 241.89215 
L 254.404337 240.815667 
L 254.890501 240.196321 
L 255.489524 240.212911 
L 255.671835 240.288486 
L 256.114592 240.743779 
L 256.45317 241.117967 
L 256.522622 241.60091 
L 256.224557 242.209196 
L 255.706561 242.358503 
" clip-path="url(#pa259bd5dc3)" style="fill: none; stroke: #1f77b4; stroke-width: 1.5"/>
    <path d="M 281.609252 246.596231 
L 280.353329 245.936333 
L 277.291655 243.289365 
L 277.679428 241.435014 
L 279.253673 240.196321 
L 282.541066 243.232223 
L 282.897007 243.938204 
L 282.390587 245.455233 
L 281.609252 246.596231 
" clip-path="url(#pa259bd5dc3)" style="fill: none; stroke: #1f77b4; stroke-width: 1.5"/>
    <path d="M 150.842769 242.670019 
L 150.883283 241.064512 
L 151.022187 240.373277 
L 151.328933 239.890335 
L 152.035028 240.196321 
L 152.035028 240.478345 
L 150.842769 242.670019 
" clip-path="url(#pa259bd5dc3)" style="fill: none; stroke: #1f77b4; stroke-width: 1.5"/>
    <path d="M 252.56386 240.859907 
L 251.973518 240.671891 
L 251.710179 240.336412 
L 251.415008 239.494027 
L 251.31083 239.182511 
L 251.487354 238.651643 
L 251.773844 238.332753 
L 252.236857 238.0452 
L 252.754853 237.901423 
L 254.140998 238.032297 
L 254.404337 238.34197 
L 254.404337 238.651643 
L 253.14552 240.788018 
L 252.56386 240.859907 
" clip-path="url(#pa259bd5dc3)" style="fill: none; stroke: #1f77b4; stroke-width: 1.5"/>
    <path d="M 283.785414 238.942883 
L 283.383171 238.496806 
L 283.640722 237.973311 
L 284.231064 237.368711 
L 285.084744 236.767798 
L 285.348083 236.767798 
L 285.353871 237.250741 
L 285.327826 238.376992 
L 284.618837 238.843345 
L 283.785414 238.942883 
" clip-path="url(#pa259bd5dc3)" style="fill: none; stroke: #1f77b4; stroke-width: 1.5"/>
    <path d="M 338.493309 245.455233 
L 337.868241 245.328046 
L 337.22581 244.826671 
L 336.730965 244.218384 
L 336.531291 243.768621 
L 336.620999 242.181547 
L 336.835143 241.527178 
L 341.633116 238.187133 
L 345.296708 235.838779 
L 349.446463 235.081186 
L 351.582111 236.25905 
L 352.108788 237.105121 
L 338.493309 245.455233 
" clip-path="url(#pa259bd5dc3)" style="fill: none; stroke: #1f77b4; stroke-width: 1.5"/>
    <path d="M 291.616123 236.395453 
L 289.981108 236.176102 
L 290.192358 235.722652 
L 291.439599 234.913447 
L 291.786859 235.101462 
L 292.675266 235.838779 
L 292.304855 236.369647 
L 291.616123 236.395453 
" clip-path="url(#pa259bd5dc3)" style="fill: none; stroke: #1f77b4; stroke-width: 1.5"/>
    <path d="M 295.204475 241.329946 
L 294.617027 240.196321 
L 302.143884 234.603774 
L 303.83967 233.676598 
L 304.105902 233.676598 
L 306.536721 235.529106 
L 306.554084 235.742928 
L 306.496208 235.798227 
L 299.617569 240.196321 
L 296.738206 241.202759 
L 295.204475 241.329946 
" clip-path="url(#pa259bd5dc3)" style="fill: none; stroke: #1f77b4; stroke-width: 1.5"/>
    <path d="M 271.220395 233.055408 
L 270.708187 232.941124 
L 270.010773 232.303345 
L 269.423325 231.409348 
L 269.258377 230.552218 
L 269.599849 229.916282 
L 270.230704 229.352235 
L 270.925224 228.998323 
L 271.463477 229.007539 
L 271.220395 233.055408 
" clip-path="url(#pa259bd5dc3)" style="fill: none; stroke: #1f77b4; stroke-width: 1.5"/>
    <path d="M 258.047671 235.248926 
L 257.520994 234.386265 
L 256.919077 233.10702 
L 255.616852 229.652691 
L 255.616852 228.697866 
L 256.103016 228.697866 
L 257.824846 229.317212 
L 259.506163 231.553125 
L 259.969176 232.874766 
L 260.00969 233.210245 
L 259.899724 233.383514 
L 258.047671 235.248926 
" clip-path="url(#pa259bd5dc3)" style="fill: none; stroke: #1f77b4; stroke-width: 1.5"/>
    <path d="M 337.503618 234.264608 
L 336.314253 233.365081 
L 335.388227 227.48498 
L 335.538706 226.841671 
L 338.959216 228.697866 
L 340.924128 230.552218 
L 341.031199 231.079399 
L 341.146953 232.747578 
L 340.892295 233.398261 
L 338.606168 234.264608 
L 337.503618 234.264608 
" clip-path="url(#pa259bd5dc3)" style="fill: none; stroke: #1f77b4; stroke-width: 1.5"/>
    <path d="M 296.804764 226.563334 
L 296.092881 225.293306 
L 298.01728 224.675803 
L 298.280618 225.912652 
L 298.092519 226.272094 
L 297.820499 226.500662 
L 296.804764 226.563334 
" clip-path="url(#pa259bd5dc3)" style="fill: none; stroke: #1f77b4; stroke-width: 1.5"/>
    <path d="M 275.040253 231.575245 
L 273.772755 231.508886 
L 273.434176 231.35958 
L 272.302688 230.552218 
L 272.013305 230.325493 
L 272.00173 229.807528 
L 272.354777 228.06746 
L 273.16505 226.659185 
L 273.674365 225.901592 
L 274.687206 225.044461 
L 275.798437 224.384563 
L 276.828641 224.030651 
L 278.287133 223.990098 
L 278.767509 224.030651 
L 278.287133 228.697866 
L 277.042785 230.248075 
L 276.594241 230.677562 
L 275.607444 231.409348 
L 275.040253 231.575245 
" clip-path="url(#pa259bd5dc3)" style="fill: none; stroke: #1f77b4; stroke-width: 1.5"/>
    <path d="M 284.335242 234.603774 
L 283.869335 233.984427 
L 282.167762 231.508886 
L 280.492233 227.433368 
L 280.492233 227.151344 
L 280.694801 226.950425 
L 285.944212 222.342195 
L 286.19887 222.224225 
L 287.315889 221.8187 
L 287.900443 222.130217 
L 288.768593 222.821451 
L 289.185304 223.6325 
L 289.405236 224.452765 
L 289.497838 226.393751 
L 289.416811 227.245352 
L 288.991418 230.104298 
L 287.984364 232.316248 
L 287.802053 232.480301 
L 285.811096 233.984427 
L 284.335242 234.603774 
" clip-path="url(#pa259bd5dc3)" style="fill: none; stroke: #1f77b4; stroke-width: 1.5"/>
    <path d="M 250.497664 225.912652 
L 247.803506 225.293306 
L 247.681965 224.764281 
L 247.820869 223.899777 
L 248.28967 222.511778 
L 249.42984 221.754185 
L 250.046226 221.571699 
L 251.088005 221.577229 
L 251.28768 221.671237 
L 251.487354 221.864783 
L 251.698604 222.500718 
L 251.791207 223.31361 
L 251.785419 224.189174 
L 251.710179 225.014969 
L 250.847817 225.658278 
L 250.497664 225.912652 
" clip-path="url(#pa259bd5dc3)" style="fill: none; stroke: #1f77b4; stroke-width: 1.5"/>
    <path d="M 202.625 220.03808 
L 201.878391 219.868497 
L 201.450104 219.4556 
L 200.576167 218.463909 
L 200.825036 218.181885 
L 201.11442 217.98281 
L 201.432741 217.872212 
L 201.785789 217.844563 
L 202.590274 218.369901 
L 202.853613 218.615059 
L 202.99541 218.933948 
L 203.076438 219.411361 
L 202.992517 219.846378 
L 202.625 220.03808 
" clip-path="url(#pa259bd5dc3)" style="fill: none; stroke: #1f77b4; stroke-width: 1.5"/>
    <path d="M 210.528055 217.197567 
L 210.528055 216.887894 
L 213.705483 214.722026 
L 214.559163 214.441846 
L 216.88291 214.106367 
L 218.09832 214.106367 
L 217.528235 214.675944 
L 214.886166 216.412325 
L 211.318071 217.173605 
L 210.528055 217.197567 
" clip-path="url(#pa259bd5dc3)" style="fill: none; stroke: #1f77b4; stroke-width: 1.5"/>
    <path d="M 245.861745 216.887894 
L 245.861745 212.248328 
L 246.10772 211.046502 
L 246.848541 210.213334 
L 248.28967 208.847455 
L 248.555902 208.847455 
L 249.942048 212.226209 
L 249.768418 213.204997 
L 248.555902 215.061192 
L 247.42152 216.233526 
L 246.611247 216.688819 
L 245.861745 216.887894 
" clip-path="url(#pa259bd5dc3)" style="fill: none; stroke: #1f77b4; stroke-width: 1.5"/>
    <path d="M 279.253673 212.248328 
L 279.253673 209.49445 
L 279.456241 208.792156 
L 279.872953 208.48064 
L 280.712164 207.890786 
L 283.513393 208.847455 
L 284.798255 209.616107 
L 284.893751 209.918407 
L 284.806936 210.309185 
L 284.598581 210.70365 
L 282.653925 211.966305 
L 279.253673 212.248328 
" clip-path="url(#pa259bd5dc3)" style="fill: none; stroke: #1f77b4; stroke-width: 1.5"/>
    <path d="M 264.136294 214.441846 
L 263.407048 212.867675 
L 263.65013 211.348802 
L 264.61667 207.785718 
L 264.958142 207.769129 
L 265.837867 207.890786 
L 266.161976 208.270504 
L 266.491873 208.91197 
L 266.740743 209.588458 
L 266.827558 210.084304 
L 267.134304 212.436344 
L 267.059064 212.709151 
L 266.792832 212.922973 
L 264.136294 214.441846 
" clip-path="url(#pa259bd5dc3)" style="fill: none; stroke: #1f77b4; stroke-width: 1.5"/>
    <path d="M 214.330551 207.824428 
L 213.430569 207.691711 
L 212.733155 207.27144 
L 212.733155 206.989416 
L 214.191647 205.726761 
L 214.350807 205.700955 
L 215.910583 206.989416 
L 215.910583 207.27144 
L 215.224745 207.676964 
L 214.330551 207.824428 
" clip-path="url(#pa259bd5dc3)" style="fill: none; stroke: #1f77b4; stroke-width: 1.5"/>
    <path d="M 276.018368 206.768221 
L 274.38046 206.508317 
L 272.800427 205.726761 
L 272.44738 205.535059 
L 268.262899 202.012528 
L 268.016923 201.645713 
L 267.782522 201.100099 
L 267.678344 200.547111 
L 267.799885 200.156333 
L 268.262899 200.019929 
L 270.230704 200.156333 
L 275.187839 201.857691 
L 277.071723 202.631874 
L 277.326381 203.334168 
L 277.462391 203.724946 
L 277.557887 204.180239 
L 276.420611 206.563616 
L 276.018368 206.768221 
" clip-path="url(#pa259bd5dc3)" style="fill: none; stroke: #1f77b4; stroke-width: 1.5"/>
    <path d="M 243.213888 207.094484 
L 242.571458 206.82352 
L 242.562776 206.193114 
L 242.666954 202.692703 
L 243.066303 201.675206 
L 244.180428 200.156333 
L 244.527688 199.924078 
L 244.857585 199.820854 
L 246.104827 199.820854 
L 247.091623 201.203323 
L 246.851435 202.611598 
L 245.939878 203.949828 
L 243.908408 206.52675 
L 243.213888 207.094484 
" clip-path="url(#pa259bd5dc3)" style="fill: none; stroke: #1f77b4; stroke-width: 1.5"/>
    <path d="M 303.56765 207.662218 
L 303.055441 207.533187 
L 302.896281 206.652094 
L 303.176982 206.054867 
L 304.835148 203.691767 
L 305.390764 202.958137 
L 306.041876 202.338791 
L 306.536721 202.012528 
L 315.050375 199.960944 
L 316.775099 199.820854 
L 316.150031 201.03374 
L 315.244262 202.176581 
L 312.098667 205.02631 
L 311.502537 205.308334 
L 306.293639 207.27144 
L 305.955061 207.387567 
L 303.56765 207.662218 
" clip-path="url(#pa259bd5dc3)" style="fill: none; stroke: #1f77b4; stroke-width: 1.5"/>
    <path d="M 214.434729 200.156333 
L 213.482658 199.540673 
L 212.666597 197.677105 
L 212.406152 197.03564 
L 212.31355 196.399704 
L 212.354063 196.108464 
L 216.639829 195.828283 
L 217.244639 196.10662 
L 216.639829 197.682635 
L 215.910583 199.540673 
L 215.615412 199.728689 
L 214.434729 200.156333 
" clip-path="url(#pa259bd5dc3)" style="fill: none; stroke: #1f77b4; stroke-width: 1.5"/>
    <path d="M 334.508502 201.763684 
L 332.251313 201.704698 
L 325.175894 200.231908 
L 324.860466 199.783988 
L 324.646322 199.009805 
L 324.568189 198.442071 
L 324.530569 197.350843 
L 324.663685 196.831034 
L 325.054353 196.418137 
L 327.297072 194.995115 
L 331.34265 194.02923 
L 332.572528 194.010798 
L 339.222554 194.843966 
L 341.870411 195.828283 
L 341.824109 198.36834 
L 341.633116 198.893678 
L 334.80946 201.704698 
L 334.508502 201.763684 
" clip-path="url(#pa259bd5dc3)" style="fill: none; stroke: #1f77b4; stroke-width: 1.5"/>
    <path d="M 119.525719 201.395025 
L 119.268168 201.188577 
L 116.420637 198.360967 
L 115.587213 197.46144 
L 112.568946 193.634766 
L 112.568946 191.750922 
L 114.010075 189.660628 
L 114.924526 188.797968 
L 115.752162 188.9952 
L 122.046246 194.036604 
L 125.631704 197.844845 
L 125.970283 199.231 
L 120.654313 201.31392 
L 120.26654 201.395025 
L 119.525719 201.395025 
" clip-path="url(#pa259bd5dc3)" style="fill: none; stroke: #1f77b4; stroke-width: 1.5"/>
    <path d="M 266.827558 199.820854 
L 265.739477 198.740685 
L 258.244452 191.085493 
L 258.102654 190.847708 
L 257.095601 188.657878 
L 257.318426 187.588768 
L 257.442861 187.159281 
L 257.738031 186.847765 
L 259.697156 185.763909 
L 260.481384 185.598013 
L 261.002274 185.87635 
L 266.697335 189.867077 
L 267.047489 190.283661 
L 267.799885 193.944439 
L 268.138464 196.748086 
L 267.047489 199.820854 
L 266.827558 199.820854 
" clip-path="url(#pa259bd5dc3)" style="fill: none; stroke: #1f77b4; stroke-width: 1.5"/>
    <path d="M 213.827024 190.853238 
L 213.306134 190.799783 
L 212.203584 190.456931 
L 211.740571 190.202556 
L 211.517746 189.867077 
L 211.517746 189.586897 
L 212.490073 186.154687 
L 214.512862 185.553774 
L 214.831184 185.524281 
L 215.647244 185.649625 
L 216.084213 185.854231 
L 217.612156 187.758351 
L 215.647244 190.202556 
L 213.827024 190.853238 
" clip-path="url(#pa259bd5dc3)" style="fill: none; stroke: #1f77b4; stroke-width: 1.5"/>
    <path d="M 116.626099 182.781463 
L 110.630079 181.516965 
L 104.055293 178.73175 
L 102.82252 177.358498 
L 102.596801 176.540076 
L 103.042451 174.468216 
L 103.120585 174.136423 
L 104.761388 169.115296 
L 109.663539 164.138408 
L 110.873161 164.138408 
L 118.906439 179.660769 
L 119.166884 180.363064 
L 119.265274 181.098537 
L 119.155308 181.8506 
L 118.799367 182.613723 
L 118.608374 182.663492 
L 116.626099 182.781463 
" clip-path="url(#pa259bd5dc3)" style="fill: none; stroke: #1f77b4; stroke-width: 1.5"/>
    <path d="M 116.122572 171.310657 
L 115.639302 171.190843 
L 114.999765 170.353988 
L 114.27052 168.777974 
L 113.570212 167.231452 
L 112.392423 164.448081 
L 112.568946 163.801085 
L 113.813294 162.873909 
L 114.432574 163.069298 
L 115.752162 165.3771 
L 117.476886 168.777974 
L 117.696817 170.636012 
L 117.696817 170.973334 
L 116.122572 171.310657 
" clip-path="url(#pa259bd5dc3)" style="fill: none; stroke: #1f77b4; stroke-width: 1.5"/>
    <path d="M 122.326948 160.737534 
L 122.326948 160.400212 
L 123.687049 158.291486 
L 124.005371 158.236187 
L 122.813112 160.737534 
L 122.326948 160.737534 
" clip-path="url(#pa259bd5dc3)" style="fill: none; stroke: #1f77b4; stroke-width: 1.5"/>
    <path d="M 304.244806 178.508712 
L 303.003352 178.088441 
L 302.63873 177.823007 
L 299.979298 175.6129 
L 299.134299 174.479276 
L 297.950722 160.960572 
L 298.5237 159.316356 
L 303.732598 158.236187 
L 304.461844 158.335725 
L 306.172098 158.879496 
L 309.002266 160.04077 
L 309.392934 160.422331 
L 309.714149 161.019558 
L 309.714149 171.898667 
L 307.882353 175.524422 
L 304.597854 178.394428 
L 304.244806 178.508712 
" clip-path="url(#pa259bd5dc3)" style="fill: none; stroke: #1f77b4; stroke-width: 1.5"/>
    <path d="M 288.279535 161.35688 
L 286.942584 158.54586 
L 287.046762 158.236187 
L 287.289844 158.116373 
L 288.991418 157.897021 
L 289.277907 157.897021 
L 290.467272 159.161519 
L 290.484635 159.375341 
L 289.850886 161.35688 
L 288.279535 161.35688 
" clip-path="url(#pa259bd5dc3)" style="fill: none; stroke: #1f77b4; stroke-width: 1.5"/>
    <path d="M 109.906621 159.808515 
L 109.918196 158.667517 
L 110.537476 154.295229 
L 111.359325 151.878673 
L 111.967029 150.195747 
L 113.060898 148.617889 
L 113.486291 148.090708 
L 114.148979 147.510071 
L 114.944783 147.099017 
L 115.50908 147.692557 
L 116.064696 148.339552 
L 116.47562 150.195747 
L 116.490089 152.274981 
L 116.168874 156.687822 
L 116.001031 157.203943 
L 114.779834 158.236187 
L 113.570212 159.161519 
L 110.143915 159.808515 
L 109.906621 159.808515 
" clip-path="url(#pa259bd5dc3)" style="fill: none; stroke: #1f77b4; stroke-width: 1.5"/>
    <path d="M 252.928483 151.065781 
L 248.28967 145.834518 
L 248.240475 145.375539 
L 249.175182 141.771903 
L 249.534018 141.355319 
L 250.254582 141.167303 
L 252.717233 142.837326 
L 253.188927 143.360821 
L 256.363461 148.160753 
L 256.994317 149.16719 
L 257.063769 149.34599 
L 257.095601 149.699902 
L 257.060875 150.081463 
L 256.157999 150.761638 
L 255.900448 150.80772 
L 252.928483 151.065781 
" clip-path="url(#pa259bd5dc3)" style="fill: none; stroke: #1f77b4; stroke-width: 1.5"/>
    <path d="M 250.133041 187.419185 
L 245.997755 186.880944 
L 191.281178 148.337709 
L 191.255134 147.832647 
L 191.307223 147.310995 
L 191.437445 146.899941 
L 191.654483 146.734045 
L 192.768608 145.974609 
L 201.751063 140.044738 
L 202.127261 139.900961 
L 206.925234 138.551672 
L 207.854154 138.383932 
L 208.215883 138.575635 
L 209.940607 139.548893 
L 237.631686 155.627929 
L 238.311737 156.042669 
L 253.675091 178.394428 
L 253.918173 182.781463 
L 253.24391 185.406311 
L 252.928483 186.154687 
L 252.410487 186.597077 
L 251.687029 187.004445 
L 250.888331 187.304901 
L 250.133041 187.419185 
" clip-path="url(#pa259bd5dc3)" style="fill: none; stroke: #1f77b4; stroke-width: 1.5"/>
    <path d="M 213.592623 134.336063 
L 213.323497 134.262331 
L 211.274664 133.687224 
L 211.396205 132.894609 
L 213.03122 131.316751 
L 213.511596 130.870674 
L 213.948565 130.62183 
L 214.530225 130.970212 
L 215.132142 131.50661 
L 215.456251 132.219964 
L 215.181337 133.099214 
L 213.592623 134.336063 
" clip-path="url(#pa259bd5dc3)" style="fill: none; stroke: #1f77b4; stroke-width: 1.5"/>
    <path d="M 222.708194 136.809761 
L 222.360935 136.69179 
L 220.902443 136.105623 
L 220.618848 135.880742 
L 218.09832 130.903853 
L 218.601847 130.62183 
L 225.405246 134.671542 
L 225.405246 134.955409 
L 224.253501 136.201474 
L 223.576344 136.671514 
L 222.708194 136.809761 
" clip-path="url(#pa259bd5dc3)" style="fill: none; stroke: #1f77b4; stroke-width: 1.5"/>
    <path d="M 97.720694 132.170195 
L 96.994342 132.146232 
L 96.540011 132.026418 
L 96.184069 131.738865 
L 95.463505 130.826435 
L 95.095989 130.199716 
L 94.997598 129.615392 
L 95.532957 129.359175 
L 96.704959 130.466993 
L 97.301089 131.128735 
L 97.720694 132.170195 
" clip-path="url(#pa259bd5dc3)" style="fill: none; stroke: #1f77b4; stroke-width: 1.5"/>
    <path d="M 227.9605 133.784919 
L 226.85795 133.687224 
L 228.843118 130.455933 
L 230.637294 127.633853 
L 231.250787 127.193307 
L 231.789039 127.989609 
L 231.603834 128.929688 
L 229.99197 131.681723 
L 229.074625 132.9794 
L 227.9605 133.784919 
" clip-path="url(#pa259bd5dc3)" style="fill: none; stroke: #1f77b4; stroke-width: 1.5"/>
    <path d="M 318.980199 141.786649 
L 318.372494 141.690798 
L 315.964826 141.084355 
L 309.789389 139.292675 
L 309.418978 139.176548 
L 299.947466 133.751739 
L 298.01728 132.170195 
L 298.01728 131.832872 
L 298.280618 129.978521 
L 298.87096 128.564716 
L 300.954519 126.855984 
L 309.714149 123.145437 
L 316.095049 122.957422 
L 316.775099 123.145437 
L 318.742905 125.337112 
L 323.089441 132.789541 
L 325.670739 138.076102 
L 325.670739 138.485313 
L 325.589712 139.268712 
L 325.141168 139.766401 
L 323.352779 140.85763 
L 322.429647 141.261311 
L 321.295265 141.550708 
L 318.980199 141.786649 
" clip-path="url(#pa259bd5dc3)" style="fill: none; stroke: #1f77b4; stroke-width: 1.5"/>
    <path d="M 267.799885 119.152867 
L 267.400537 116.994372 
L 267.504715 115.951069 
L 268.222385 114.850624 
L 268.450998 114.793481 
L 268.772213 114.763989 
L 270.022348 115.602687 
L 269.773479 116.725251 
L 268.042967 119.152867 
L 267.799885 119.152867 
" clip-path="url(#pa259bd5dc3)" style="fill: none; stroke: #1f77b4; stroke-width: 1.5"/>
    <path d="M 94.300185 123.788746 
L 90.515052 122.216418 
L 87.404183 120.813673 
L 86.235075 119.777743 
L 79.208851 109.503233 
L 78.207585 107.932749 
L 77.258408 106.412033 
L 78.716899 104.360449 
L 79.052584 104.286717 
L 85.271429 102.95586 
L 85.760486 103.114383 
L 88.691938 104.504226 
L 94.725578 123.184147 
L 94.73426 123.501193 
L 94.300185 123.788746 
" clip-path="url(#pa259bd5dc3)" style="fill: none; stroke: #1f77b4; stroke-width: 1.5"/>
    <path d="M 280.74689 104.625883 
L 275.190733 103.86829 
L 274.562771 103.748476 
L 270.010773 102.364164 
L 269.524609 95.53108 
L 269.524609 95.221407 
L 273.043509 94.605748 
L 284.335242 93.367055 
L 284.335242 95.53108 
L 281.490605 103.291339 
L 280.74689 104.625883 
" clip-path="url(#pa259bd5dc3)" style="fill: none; stroke: #1f77b4; stroke-width: 1.5"/>
    <path d="M 289.286588 76.970973 
L 288.505254 76.891712 
L 287.275375 76.206007 
L 284.919796 74.360872 
L 284.410481 73.774705 
L 284.109523 73.177478 
L 286.8413 72.006988 
L 287.776008 71.662292 
L 288.814894 71.689942 
L 291.682681 72.530483 
L 292.229616 72.923104 
L 292.825745 73.488995 
L 293.141173 74.123087 
L 293.063039 75.406018 
L 292.611601 75.841035 
L 289.286588 76.970973 
" clip-path="url(#pa259bd5dc3)" style="fill: none; stroke: #1f77b4; stroke-width: 1.5"/>
    <path d="M 255.616852 69.157259 
L 251.652303 66.4255 
L 251.154563 66.054998 
L 250.983827 64.799716 
L 251.209546 63.627383 
L 251.744905 62.471639 
L 252.928483 60.779497 
L 255.616852 58.587822 
L 258.215514 59.30855 
L 258.797174 59.513155 
L 260.351162 61.087326 
L 260.605819 61.387783 
L 260.741829 61.708516 
L 260.741829 63.843048 
L 260.600031 66.912129 
L 260.519004 67.273414 
L 255.616852 69.157259 
" clip-path="url(#pa259bd5dc3)" style="fill: none; stroke: #1f77b4; stroke-width: 1.5"/>
    <path d="M 228.663701 238.504179 
L 228.403256 238.316164 
L 228.394574 237.989901 
L 228.663701 237.995431 
L 228.77656 238.220312 
L 228.831543 238.415701 
L 228.663701 238.504179 
" clip-path="url(#pa259bd5dc3)" style="fill: none; stroke: #1f77b4; stroke-width: 1.5"/>
    <path d="M 213.714164 235.258142 
L 213.497127 235.147545 
L 213.309028 234.694095 
L 213.210638 234.118988 
L 213.436356 234.179816 
L 213.72574 234.666445 
L 213.835705 235.149388 
L 213.714164 235.258142 
" clip-path="url(#pa259bd5dc3)" style="fill: none; stroke: #1f77b4; stroke-width: 1.5"/>
    <path d="M 358.356572 266.618069 
L 357.908028 266.385814 
L 357.855939 265.749878 
L 358.180048 265.335137 
L 358.434705 265.252189 
L 358.96717 265.152651 
L 359.571981 265.113942 
L 361.377733 265.21901 
L 361.467441 265.430989 
L 361.455866 265.877065 
L 361.305387 266.258627 
L 361.152014 266.402403 
L 360.18258 266.581203 
L 358.356572 266.618069 
" clip-path="url(#pa259bd5dc3)" style="fill: none; stroke: #1f77b4; stroke-width: 1.5"/>
    <path d="M 345.195424 250.824743 
L 344.440134 250.695712 
L 344.069723 250.410002 
L 343.942394 249.93259 
L 344.335956 249.02569 
L 345.386417 248.347359 
L 346.063573 248.319709 
L 346.379001 248.716017 
L 346.784137 249.6137 
L 346.497648 250.465301 
L 345.664225 250.81737 
L 345.195424 250.824743 
" clip-path="url(#pa259bd5dc3)" style="fill: none; stroke: #1f77b4; stroke-width: 1.5"/>
    <path d="M 334.534546 226.500662 
L 334.120728 226.44905 
L 333.680866 226.165183 
L 332.957408 225.479478 
L 331.498917 223.223289 
L 331.374482 222.633435 
L 331.782512 222.235284 
L 332.355491 221.881372 
L 332.639086 221.837133 
L 334.114941 222.4233 
L 334.224906 222.673988 
L 335.434528 225.626942 
L 335.434528 226.120944 
L 335.017816 226.375318 
L 334.829717 226.467483 
L 334.534546 226.500662 
" clip-path="url(#pa259bd5dc3)" style="fill: none; stroke: #1f77b4; stroke-width: 1.5"/>
    <path d="M 323.714508 218.622432 
L 323.326735 218.353311 
L 322.840571 217.693413 
L 322.692986 217.286045 
L 322.875297 214.570876 
L 322.970794 214.025262 
L 324.116751 213.947844 
L 324.542144 214.143233 
L 324.889404 214.39945 
L 325.115123 214.637235 
L 325.363993 215.079625 
L 325.450808 215.527545 
L 324.084919 218.467596 
L 323.714508 218.622432 
" clip-path="url(#pa259bd5dc3)" style="fill: none; stroke: #1f77b4; stroke-width: 1.5"/>
    <path d="M 258.313904 204.019873 
L 256.68757 203.706513 
L 256.236133 203.417117 
L 258.241558 202.322201 
L 258.840581 202.276119 
L 259.129965 202.554456 
L 259.135752 203.924022 
L 258.313904 204.019873 
" clip-path="url(#pa259bd5dc3)" style="fill: none; stroke: #1f77b4; stroke-width: 1.5"/>
    <path d="M 121.499312 159.220505 
L 121.383559 158.779958 
L 121.481949 158.269366 
L 122.130168 157.115465 
L 122.679996 156.490589 
L 123.305063 156.249118 
L 124.150062 156.050043 
L 124.381569 156.197506 
L 124.424976 156.667545 
L 124.025628 157.187354 
L 121.785802 159.13387 
L 121.499312 159.220505 
" clip-path="url(#pa259bd5dc3)" style="fill: none; stroke: #1f77b4; stroke-width: 1.5"/>
    <path d="M 118.99036 158.634338 
L 118.53024 158.437106 
L 117.271424 157.248182 
L 116.74764 156.064789 
L 117.083324 155.552354 
L 118.385549 155.030702 
L 118.903545 155.257427 
L 118.981678 155.312726 
L 119.166884 155.452816 
L 119.178459 155.622399 
L 118.99036 158.634338 
" clip-path="url(#pa259bd5dc3)" style="fill: none; stroke: #1f77b4; stroke-width: 1.5"/>
    <path d="M 235.024344 126.852298 
L 234.688659 126.479953 
L 234.254584 125.335268 
L 234.376125 124.837579 
L 234.584481 124.36201 
L 234.862289 123.94174 
L 235.166141 123.862478 
L 235.999565 124.49657 
L 236.14715 124.655094 
L 236.121106 125.357388 
L 235.689925 126.502072 
L 235.024344 126.852298 
" clip-path="url(#pa259bd5dc3)" style="fill: none; stroke: #1f77b4; stroke-width: 1.5"/>
   </g>
  </g>
 </g>
 <defs>
  <clipPath id="pa259bd5dc3">
   <rect x="61.944249" y="0" width="336.911503" height="345.6"/>
  </clipPath>
 </defs>
</svg>
