<?xml version="1.0" encoding="utf-8" standalone="no"?>
<!DOCTYPE svg PUBLIC "-//W3C//DTD SVG 1.1//EN"
  "http://www.w3.org/Graphics/SVG/1.1/DTD/svg11.dtd">
<svg xmlns:xlink="http://www.w3.org/1999/xlink" width="460.8pt" height="345.6pt" viewBox="0 0 460.8 345.6" xmlns="http://www.w3.org/2000/svg" version="1.1">
 <metadata>
  <rdf:RDF xmlns:dc="http://purl.org/dc/elements/1.1/" xmlns:cc="http://creativecommons.org/ns#" xmlns:rdf="http://www.w3.org/1999/02/22-rdf-syntax-ns#">
   <cc:Work>
    <dc:type rdf:resource="http://purl.org/dc/dcmitype/StillImage"/>
    <dc:date>2025-01-23T13:24:48.245336</dc:date>
    <dc:format>image/svg+xml</dc:format>
    <dc:creator>
     <cc:Agent>
      <dc:title>Matplotlib v3.8.2, https://matplotlib.org/</dc:title>
     </cc:Agent>
    </dc:creator>
   </cc:Work>
  </rdf:RDF>
 </metadata>
 <defs>
  <style type="text/css">*{stroke-linejoin: round; stroke-linecap: butt}</style>
 </defs>
 <g id="figure_1">
  <g id="patch_1">
   <path d="M 0 345.6 
L 460.8 345.6 
L 460.8 0 
L 0 0 
z
" style="fill: none"/>
  </g>
  <g id="axes_1">
   <g id="LineCollection_1">
    <path d="M 124.352242 220.643333 
L 124.131054 220.521656 
L 123.909419 220.341256 
L 123.861122 220.078063 
L 124.60227 219.037265 
L 125.407605 218.016136 
L 125.50015 218.240521 
L 125.593679 218.546499 
L 125.605493 218.815281 
L 124.755854 220.307376 
L 124.352242 220.643333 
" clip-path="url(#p0dee7c2964)" style="fill: none; stroke: #1f77b4; stroke-width: 1.5"/>
    <path d="M 135.987189 229.759253 
L 130.718409 226.174721 
L 130.595631 225.959953 
L 129.469724 223.781133 
L 124.812289 206.496317 
L 122.612185 196.987275 
L 122.954169 194.846827 
L 123.099373 194.69779 
L 126.254126 192.17077 
L 133.945341 187.705057 
L 134.66207 187.330683 
L 136.310152 186.542339 
L 136.406635 186.496742 
L 136.562189 186.476343 
L 137.176723 186.402999 
L 140.214452 186.073106 
L 148.201614 190.479711 
L 148.469991 190.860855 
L 148.755073 191.390238 
L 148.953752 191.761838 
L 153.207937 201.154223 
L 153.243333 201.301605 
L 144.528904 223.618544 
L 144.219766 224.312096 
L 144.136082 224.385291 
L 139.410398 228.017437 
L 139.208572 228.140428 
L 136.231818 229.732429 
L 135.987189 229.759253 
" clip-path="url(#p0dee7c2964)" style="fill: none; stroke: #1f77b4; stroke-width: 1.5"/>
    <path d="M 164.350196 204.568677 
L 159.819018 203.97245 
L 152.353231 195.171482 
L 163.083465 183.763236 
L 163.626457 183.489753 
L 175.358086 180.126987 
L 175.659349 180.042393 
L 175.774537 180.026194 
L 178.158054 179.795811 
L 184.246927 182.044927 
L 185.509447 188.006836 
L 178.722896 196.655661 
L 178.556818 196.835567 
L 164.662288 204.436087 
L 164.350196 204.568677 
" clip-path="url(#p0dee7c2964)" style="fill: none; stroke: #1f77b4; stroke-width: 1.5"/>
    <path d="M 165.280565 155.774691 
L 165.274658 155.346321 
L 165.307147 154.901752 
L 165.454824 154.568176 
L 165.791529 154.464983 
L 165.961851 154.763162 
L 165.814173 155.155534 
L 165.526694 155.530508 
L 165.280565 155.774691 
" clip-path="url(#p0dee7c2964)" style="fill: none; stroke: #1f77b4; stroke-width: 1.5"/>
    <path d="M 165.451871 154.464983 
L 165.419382 154.345591 
L 165.451871 154.264597 
L 165.698 154.409787 
L 165.451871 154.464983 
" clip-path="url(#p0dee7c2964)" style="fill: none; stroke: #1f77b4; stroke-width: 1.5"/>
    <path d="M 164.262574 155.519709 
L 164.099144 155.495711 
L 163.906178 155.35892 
L 163.711244 155.169933 
L 163.95442 154.874154 
L 164.792244 154.154805 
L 165.382955 154.210601 
L 165.389846 154.339592 
L 165.378032 154.449984 
L 164.998993 155.172933 
L 164.867068 155.270726 
L 164.262574 155.519709 
" clip-path="url(#p0dee7c2964)" style="fill: none; stroke: #1f77b4; stroke-width: 1.5"/>
    <path d="M 197.713526 193.927822 
L 152.725997 188.871376 
L 139.108789 186.840784 
L 138.908294 186.689328 
L 138.669056 186.487742 
L 138.453447 183.910323 
L 138.574542 181.455294 
L 138.834455 180.507961 
L 138.917155 180.337573 
L 139.392676 179.561227 
L 139.496051 179.395639 
L 139.628961 179.270247 
L 253.1486 78.442529 
L 260.059916 74.297449 
L 266.677462 76.017167 
L 266.717229 76.079102 
L 266.754191 76.177814 
L 272.592975 97.155792 
L 272.715056 97.631559 
L 274.053999 103.737332 
L 274.042185 103.880722 
L 273.91026 104.974445 
L 259.64657 160.204181 
L 259.517809 160.554696 
L 259.419852 160.686851 
L 253.576215 168.227726 
L 252.893708 168.905428 
L 248.1173 172.194019 
L 198.067299 193.813896 
L 197.713526 193.927822 
" clip-path="url(#p0dee7c2964)" style="fill: none; stroke: #1f77b4; stroke-width: 1.5"/>
    <path d="M 296.678212 36.075266 
L 296.146573 35.975673 
L 295.145318 35.643896 
L 295.192575 35.537704 
L 295.41803 35.532904 
L 295.699602 35.579701 
L 297.106477 35.940875 
L 296.678212 36.075266 
" clip-path="url(#p0dee7c2964)" style="fill: none; stroke: #1f77b4; stroke-width: 1.5"/>
    <path d="M 251.536115 76.446441 
L 251.246666 76.406844 
L 250.221784 76.263454 
L 250.07706 76.214858 
L 249.637965 75.952076 
L 249.470597 75.835084 
L 249.348517 75.557304 
L 248.809986 74.096406 
L 246.317187 63.618139 
L 246.196091 63.03078 
L 246.98469 58.934267 
L 247.113662 58.372106 
L 268.944353 16.936005 
L 269.158978 16.741019 
L 272.228704 15.776286 
L 272.537842 15.709091 
L 313.627666 33.032279 
L 313.938774 33.661035 
L 314.009659 33.818224 
L 319.476685 47.362876 
L 319.398908 47.497867 
L 315.915685 50.381865 
L 288.223176 68.676985 
L 251.536115 76.446441 
" clip-path="url(#p0dee7c2964)" style="fill: none; stroke: #1f77b4; stroke-width: 1.5"/>
    <path d="M 53.644153 329.229155 
L 51.614078 328.811585 
L 51.429973 328.644796 
L 51.618016 328.248824 
L 52.659636 326.849722 
L 52.744304 326.829323 
L 54.360882 327.422082 
L 54.65033 327.599669 
L 54.670021 327.983643 
L 54.421922 328.494207 
L 53.908004 329.210557 
L 53.644153 329.229155 
" clip-path="url(#p0dee7c2964)" style="fill: none; stroke: #1f77b4; stroke-width: 1.5"/>
    <path d="M 42.711086 326.537744 
L 42.603774 326.468149 
L 42.597867 326.312159 
L 42.675644 326.143571 
L 42.808553 326.042178 
L 43.377605 326.02478 
L 43.543988 326.091375 
L 43.566632 326.246164 
L 43.479994 326.417152 
L 43.32641 326.537744 
L 42.711086 326.537744 
" clip-path="url(#p0dee7c2964)" style="fill: none; stroke: #1f77b4; stroke-width: 1.5"/>
    <path d="M 57.585177 328.108434 
L 57.14116 327.975843 
L 56.922597 327.701662 
L 56.386035 326.700932 
L 56.391942 326.59714 
L 56.849742 326.125573 
L 59.248027 324.358696 
L 59.330727 324.314899 
L 59.42524 324.413892 
L 59.463636 324.598679 
L 58.369837 327.655465 
L 58.007535 328.047838 
L 57.585177 328.108434 
" clip-path="url(#p0dee7c2964)" style="fill: none; stroke: #1f77b4; stroke-width: 1.5"/>
    <path d="M 264.608538 322.29964 
L 264.611492 321.808875 
L 264.64595 321.607889 
L 264.728649 321.430901 
L 264.876327 321.343307 
L 265.100797 321.309709 
L 265.315422 321.324108 
L 265.433564 321.375705 
L 265.527093 321.550893 
L 264.766061 322.190448 
L 264.608538 322.29964 
" clip-path="url(#p0dee7c2964)" style="fill: none; stroke: #1f77b4; stroke-width: 1.5"/>
    <path d="M 71.166596 322.318839 
L 70.672369 322.204847 
L 70.64874 321.934866 
L 70.69009 319.966403 
L 70.861396 320.0102 
L 70.991352 320.082195 
L 71.052392 320.132592 
L 72.922976 321.860471 
L 73.017489 322.034459 
L 72.91313 322.148451 
L 72.665032 322.221646 
L 72.184587 322.29964 
L 71.166596 322.318839 
" clip-path="url(#p0dee7c2964)" style="fill: none; stroke: #1f77b4; stroke-width: 1.5"/>
    <path d="M 143.049175 306.201567 
L 142.919218 306.15837 
L 142.693764 306.049777 
L 142.70164 305.86679 
L 142.80403 305.656805 
L 142.984196 305.415622 
L 143.044252 305.362225 
L 143.117106 305.344826 
L 143.214574 305.372425 
L 143.480393 305.617207 
L 143.182084 306.197367 
L 143.049175 306.201567 
" clip-path="url(#p0dee7c2964)" style="fill: none; stroke: #1f77b4; stroke-width: 1.5"/>
    <path d="M 89.183267 299.054867 
L 89.104506 299.039268 
L 89.019837 298.979872 
L 88.151493 298.29052 
L 88.080607 298.087734 
L 88.189889 297.938945 
L 88.393684 297.838152 
L 88.612247 297.782956 
L 88.738265 297.768557 
L 88.95289 297.808154 
L 89.161608 297.925146 
L 89.334883 298.108133 
L 89.439242 298.340916 
L 89.442195 298.478907 
L 89.406753 298.625297 
L 89.259075 299.023069 
L 89.183267 299.054867 
" clip-path="url(#p0dee7c2964)" style="fill: none; stroke: #1f77b4; stroke-width: 1.5"/>
    <path d="M 275.383098 294.405192 
L 275.137953 294.210206 
L 274.884932 293.760837 
L 274.550196 292.895697 
L 274.626989 292.887298 
L 274.684091 292.906497 
L 275.209823 293.188477 
L 275.383098 293.591049 
L 275.540621 294.00322 
L 275.383098 294.405192 
" clip-path="url(#p0dee7c2964)" style="fill: none; stroke: #1f77b4; stroke-width: 1.5"/>
    <path d="M 99.621122 302.285041 
L 99.430126 300.707751 
L 99.457692 300.362775 
L 100.477652 297.190197 
L 102.362019 293.28867 
L 106.920335 290.461068 
L 107.843812 291.535593 
L 107.91962 291.778576 
L 107.91962 292.259742 
L 107.56224 293.195077 
L 107.033554 293.909627 
L 101.377501 301.469098 
L 101.121527 301.733679 
L 100.51211 302.208246 
L 100.328005 302.285041 
L 99.621122 302.285041 
" clip-path="url(#p0dee7c2964)" style="fill: none; stroke: #1f77b4; stroke-width: 1.5"/>
    <path d="M 275.846806 288.189627 
L 275.605599 288.031238 
L 275.383098 287.633466 
L 275.540621 287.43188 
L 275.702082 287.352685 
L 275.875357 287.334687 
L 276.025004 287.394082 
L 276.119517 287.541672 
L 276.04174 288.046837 
L 275.846806 288.189627 
" clip-path="url(#p0dee7c2964)" style="fill: none; stroke: #1f77b4; stroke-width: 1.5"/>
    <path d="M 110.608338 283.613147 
L 110.433093 283.56875 
L 110.276555 283.446359 
L 110.208623 283.301169 
L 110.187949 283.112782 
L 110.199763 282.928595 
L 110.232252 282.791804 
L 110.293292 282.661614 
L 110.348425 282.626816 
L 112.311553 282.078454 
L 112.386376 282.169648 
L 112.274141 282.359835 
L 111.464868 283.245373 
L 111.252212 283.412761 
L 111.150807 283.449958 
L 110.784566 283.57475 
L 110.608338 283.613147 
" clip-path="url(#p0dee7c2964)" style="fill: none; stroke: #1f77b4; stroke-width: 1.5"/>
    <path d="M 115.291687 278.737888 
L 115.079032 278.659294 
L 114.656674 278.047336 
L 114.61237 277.84575 
L 114.467646 276.623636 
L 114.656674 275.642705 
L 114.721652 275.574909 
L 115.291687 275.306128 
L 115.515173 275.597708 
L 116.230917 277.194196 
L 116.290973 277.383183 
L 116.225995 277.629166 
L 115.805606 278.353315 
L 115.646114 278.529703 
L 115.457086 278.673093 
L 115.291687 278.737888 
" clip-path="url(#p0dee7c2964)" style="fill: none; stroke: #1f77b4; stroke-width: 1.5"/>
    <path d="M 119.309503 272.903296 
L 118.611481 272.578719 
L 118.571115 272.475526 
L 118.19503 271.459797 
L 118.120206 271.234813 
L 118.301357 271.158018 
L 118.687288 271.161018 
L 119.190377 271.461597 
L 120.134529 272.463527 
L 120.171941 272.764706 
L 119.851973 272.881098 
L 119.309503 272.903296 
" clip-path="url(#p0dee7c2964)" style="fill: none; stroke: #1f77b4; stroke-width: 1.5"/>
    <path d="M 127.766509 269.856109 
L 127.504627 269.840511 
L 126.984802 269.659323 
L 127.735004 268.978971 
L 128.3966 268.533202 
L 128.405461 268.783385 
L 128.290272 269.155358 
L 128.122904 269.520133 
L 127.975227 269.750517 
L 127.766509 269.856109 
" clip-path="url(#p0dee7c2964)" style="fill: none; stroke: #1f77b4; stroke-width: 1.5"/>
    <path d="M 120.481079 272.27694 
L 120.35703 272.223544 
L 117.855371 270.492065 
L 117.695879 270.354675 
L 117.695879 270.262881 
L 119.125399 269.191356 
L 119.940579 268.642994 
L 124.075553 266.522743 
L 124.252766 266.535342 
L 124.376815 266.743527 
L 124.66331 267.492875 
L 124.655434 267.627865 
L 124.594394 267.712459 
L 120.481079 272.27694 
" clip-path="url(#p0dee7c2964)" style="fill: none; stroke: #1f77b4; stroke-width: 1.5"/>
    <path d="M 124.655434 250.358074 
L 124.556982 250.016698 
L 124.539261 249.821711 
L 124.58061 249.644724 
L 124.956696 249.54873 
L 125.05121 249.779114 
L 124.931099 250.11989 
L 124.655434 250.358074 
" clip-path="url(#p0dee7c2964)" style="fill: none; stroke: #1f77b4; stroke-width: 1.5"/>
    <path d="M 127.067502 247.210094 
L 126.377701 247.136976 
L 126.096826 246.766549 
L 126.007152 246.42229 
L 126.227433 246.220996 
L 126.627422 246.336555 
L 126.68354 246.356954 
L 126.742611 246.397751 
L 127.150201 247.1183 
L 127.067502 247.210094 
" clip-path="url(#p0dee7c2964)" style="fill: none; stroke: #1f77b4; stroke-width: 1.5"/>
    <path d="M 133.909466 241.22189 
L 133.325577 241.027363 
L 133.197664 240.783107 
L 132.703158 239.543536 
L 132.615431 239.156195 
L 132.581968 238.735086 
L 133.68132 237.809285 
L 134.066413 237.650973 
L 134.899637 238.123102 
L 135.756801 238.613815 
L 136.191025 239.027866 
L 136.129001 239.54263 
L 135.859243 240.26738 
L 135.334261 240.828335 
L 135.014018 241.072544 
L 134.645643 241.138742 
L 134.293475 241.196597 
L 133.909466 241.22189 
" clip-path="url(#p0dee7c2964)" style="fill: none; stroke: #1f77b4; stroke-width: 1.5"/>
    <path d="M 138.746632 239.480945 
L 138.559885 239.480154 
L 138.39943 239.151538 
L 138.305845 237.749735 
L 138.331407 237.618808 
L 139.393646 234.638816 
L 140.20368 232.913772 
L 140.45675 232.469594 
L 140.602649 232.291538 
L 140.675503 232.211743 
L 140.757218 232.161947 
L 140.872457 232.156768 
L 141.191781 233.011682 
L 141.082947 234.243179 
L 140.824996 235.537977 
L 139.859377 238.648915 
L 139.670412 239.053979 
L 138.746632 239.480945 
" clip-path="url(#p0dee7c2964)" style="fill: none; stroke: #1f77b4; stroke-width: 1.5"/>
    <path d="M 129.835965 213.432457 
L 129.658752 213.322065 
L 129.576052 213.11088 
L 129.422467 212.474924 
L 129.374226 212.211543 
L 129.400808 212.000957 
L 129.495322 211.926563 
L 129.627247 211.945761 
L 130.159871 212.063353 
L 130.295735 212.166546 
L 130.378434 212.460525 
L 130.338069 212.634513 
L 130.130336 213.228471 
L 130.054528 213.376061 
L 129.835965 213.432457 
" clip-path="url(#p0dee7c2964)" style="fill: none; stroke: #1f77b4; stroke-width: 1.5"/>
    <path d="M 132.413432 209.53273 
L 130.95733 209.230351 
L 130.712185 208.841578 
L 130.607827 208.625593 
L 130.614718 208.420408 
L 130.674774 208.338814 
L 131.542134 207.719657 
L 131.7223 207.629663 
L 132.422292 207.290087 
L 132.517791 207.290687 
L 133.55941 207.312285 
L 133.698227 207.518071 
L 132.782626 209.205753 
L 132.413432 209.53273 
" clip-path="url(#p0dee7c2964)" style="fill: none; stroke: #1f77b4; stroke-width: 1.5"/>
    <path d="M 128.175084 212.25114 
L 127.975227 212.25054 
L 127.526287 211.559388 
L 127.522349 211.487993 
L 127.746819 209.658721 
L 128.065802 207.197693 
L 129.721761 206.986508 
L 129.971828 207.006307 
L 130.322316 207.368081 
L 130.437505 207.981838 
L 130.550725 209.557928 
L 130.517251 209.950901 
L 130.490669 210.065493 
L 130.440459 210.155486 
L 130.337084 210.291077 
L 129.642999 211.152617 
L 128.9371 211.806571 
L 128.768748 211.937962 
L 128.476346 212.116149 
L 128.175084 212.25114 
" clip-path="url(#p0dee7c2964)" style="fill: none; stroke: #1f77b4; stroke-width: 1.5"/>
    <path d="M 113.187624 206.632772 
L 111.730097 206.346592 
L 111.098689 206.00595 
L 111.139577 205.763842 
L 111.598673 203.83546 
L 111.709634 203.628607 
L 111.829139 203.519951 
L 113.615644 203.267433 
L 114.024613 203.863727 
L 114.73642 205.523211 
L 114.73642 205.53701 
L 114.713776 205.588006 
L 113.187624 206.632772 
" clip-path="url(#p0dee7c2964)" style="fill: none; stroke: #1f77b4; stroke-width: 1.5"/>
    <path d="M 247.021117 199.730616 
L 246.841935 199.723416 
L 246.623372 199.617824 
L 246.438283 199.455835 
L 245.90369 198.568497 
L 245.859386 198.352512 
L 245.993281 198.175525 
L 246.198061 198.107129 
L 247.34207 198.739485 
L 247.52519 199.025665 
L 247.427723 199.203853 
L 247.135321 199.627423 
L 247.021117 199.730616 
" clip-path="url(#p0dee7c2964)" style="fill: none; stroke: #1f77b4; stroke-width: 1.5"/>
    <path d="M 116.718253 203.003387 
L 116.485623 202.940335 
L 115.683545 201.08965 
L 115.708191 200.901762 
L 117.241218 197.859425 
L 117.355984 197.974859 
L 118.144037 200.542974 
L 118.061135 200.803941 
L 117.100787 202.426492 
L 116.718253 203.003387 
" clip-path="url(#p0dee7c2964)" style="fill: none; stroke: #1f77b4; stroke-width: 1.5"/>
    <path d="M 120.481492 197.814733 
L 120.075968 197.668747 
L 120.165108 197.169683 
L 121.287703 195.185085 
L 122.28768 194.346692 
L 122.655009 194.260028 
L 122.733392 194.91485 
L 122.444905 195.663863 
L 121.897822 196.702343 
L 121.335393 197.390083 
L 120.923903 197.687949 
L 120.481492 197.814733 
" clip-path="url(#p0dee7c2964)" style="fill: none; stroke: #1f77b4; stroke-width: 1.5"/>
    <path d="M 155.338907 189.022565 
L 155.084901 188.985368 
L 154.504036 188.820979 
L 154.588705 188.616993 
L 154.75115 188.5198 
L 154.956914 188.5234 
L 155.173508 188.620593 
L 155.541717 188.931371 
L 155.527934 188.985368 
L 155.338907 189.022565 
" clip-path="url(#p0dee7c2964)" style="fill: none; stroke: #1f77b4; stroke-width: 1.5"/>
    <path d="M 124.655434 190.029295 
L 124.527446 189.983698 
L 124.291502 189.765772 
L 123.882238 189.36852 
L 123.7876 189.169689 
L 123.755589 188.922966 
L 123.879903 188.293657 
L 124.263566 187.4725 
L 125.21464 187.864646 
L 125.573004 188.721386 
L 125.605493 189.039964 
L 125.606478 189.24335 
L 125.415481 189.432936 
L 124.655434 190.029295 
" clip-path="url(#p0dee7c2964)" style="fill: none; stroke: #1f77b4; stroke-width: 1.5"/>
    <path d="M 156.750705 187.906643 
L 154.84271 187.705057 
L 154.565076 187.081701 
L 154.479423 186.734325 
L 154.66845 186.386949 
L 154.960852 186.269958 
L 157.905544 186.487742 
L 157.506814 186.994707 
L 156.750705 187.906643 
" clip-path="url(#p0dee7c2964)" style="fill: none; stroke: #1f77b4; stroke-width: 1.5"/>
    <path d="M 243.032837 185.043643 
L 242.80246 184.676469 
L 242.891066 184.204902 
L 243.242539 183.915722 
L 243.640284 183.899523 
L 243.866723 184.245099 
L 243.70034 184.716066 
L 243.376433 185.019045 
L 243.032837 185.043643 
" clip-path="url(#p0dee7c2964)" style="fill: none; stroke: #1f77b4; stroke-width: 1.5"/>
    <path d="M 158.942241 184.52048 
L 158.008918 184.386089 
L 157.734238 184.273297 
L 158.236342 183.256968 
L 158.354484 183.098579 
L 158.508069 183.001386 
L 158.667561 182.958189 
L 158.798501 182.967189 
L 158.897938 183.056582 
L 159.213968 183.819729 
L 159.249411 184.100509 
L 159.119454 184.453885 
L 158.942241 184.52048 
" clip-path="url(#p0dee7c2964)" style="fill: none; stroke: #1f77b4; stroke-width: 1.5"/>
    <path d="M 163.886488 182.743404 
L 163.777207 182.650411 
L 163.957373 181.847667 
L 164.18775 181.547088 
L 164.44471 181.278307 
L 164.686901 181.218311 
L 164.867068 181.545888 
L 164.997024 181.998856 
L 164.949767 182.294636 
L 164.744987 182.51542 
L 163.886488 182.743404 
" clip-path="url(#p0dee7c2964)" style="fill: none; stroke: #1f77b4; stroke-width: 1.5"/>
    <path d="M 118.599084 184.262134 
L 118.008869 183.997781 
L 117.993376 183.407867 
L 118.060236 182.689903 
L 118.116121 182.222384 
L 118.334301 180.909954 
L 118.44108 180.71755 
L 119.322233 180.811997 
L 120.076966 181.251678 
L 120.131643 181.341238 
L 119.861868 182.19237 
L 119.528076 183.059005 
L 119.278566 183.668912 
L 119.107215 183.884402 
L 118.936313 184.099223 
L 118.599084 184.262134 
" clip-path="url(#p0dee7c2964)" style="fill: none; stroke: #1f77b4; stroke-width: 1.5"/>
    <path d="M 240.150169 180.814539 
L 239.978863 180.539159 
L 239.990677 180.360971 
L 240.120634 179.842607 
L 240.180689 179.734015 
L 240.436664 179.460434 
L 240.550868 179.410637 
L 240.569574 179.678819 
L 240.495735 180.148586 
L 240.339197 180.605754 
L 240.150169 180.814539 
" clip-path="url(#p0dee7c2964)" style="fill: none; stroke: #1f77b4; stroke-width: 1.5"/>
    <path d="M 185.236592 182.757283 
L 184.915824 182.31112 
L 184.484564 181.65748 
L 184.371506 181.323153 
L 184.687141 180.733044 
L 186.086803 178.984819 
L 187.113603 177.765519 
L 188.293159 176.690437 
L 188.551433 176.601666 
L 188.85976 176.858416 
L 188.883388 177.037803 
L 188.013956 181.586326 
L 186.100037 182.612574 
L 185.517239 182.742301 
L 185.236592 182.757283 
" clip-path="url(#p0dee7c2964)" style="fill: none; stroke: #1f77b4; stroke-width: 1.5"/>
    <path d="M 120.092089 181.144596 
L 119.858344 181.081504 
L 118.701813 180.329411 
L 119.430023 177.170162 
L 119.843684 176.017057 
L 121.053517 175.324081 
L 121.383968 175.236627 
L 121.552618 175.239529 
L 121.748153 175.487512 
L 121.833172 175.599421 
L 121.839542 176.199808 
L 121.717633 176.768422 
L 120.867983 180.388707 
L 120.780726 180.590054 
L 120.387375 181.039653 
L 120.092089 181.144596 
" clip-path="url(#p0dee7c2964)" style="fill: none; stroke: #1f77b4; stroke-width: 1.5"/>
    <path d="M 242.265898 175.594904 
L 242.010907 175.587705 
L 241.257355 175.21751 
L 241.158669 174.956016 
L 241.168576 174.25851 
L 241.22242 173.817796 
L 241.756902 173.94442 
L 241.969558 174.059612 
L 242.205842 174.191003 
L 242.354504 174.414187 
L 242.435235 174.703967 
L 242.456894 175.029744 
L 242.449018 175.400518 
L 242.399792 175.561907 
L 242.265898 175.594904 
" clip-path="url(#p0dee7c2964)" style="fill: none; stroke: #1f77b4; stroke-width: 1.5"/>
    <path d="M 164.660319 156.177263 
L 164.581557 156.146065 
L 164.518548 156.069871 
L 164.480152 155.968478 
L 164.474245 155.865285 
L 164.616016 155.706296 
L 164.870021 155.78849 
L 165.129934 155.987076 
L 165.280565 156.177263 
L 164.660319 156.177263 
" clip-path="url(#p0dee7c2964)" style="fill: none; stroke: #1f77b4; stroke-width: 1.5"/>
    <path d="M 168.267591 153.751633 
L 168.175046 153.747433 
L 167.424844 153.65084 
L 167.345098 153.602243 
L 166.653967 153.046682 
L 166.594896 152.896693 
L 166.69827 151.984756 
L 166.857762 151.701576 
L 167.856063 151.033823 
L 168.196706 151.338002 
L 168.606265 151.738774 
L 168.671243 151.828767 
L 168.94297 152.283535 
L 168.911466 153.013084 
L 168.84058 153.168474 
L 168.405424 153.64184 
L 168.267591 153.751633 
" clip-path="url(#p0dee7c2964)" style="fill: none; stroke: #1f77b4; stroke-width: 1.5"/>
    <path d="M 227.754109 129.600322 
L 227.626122 129.577524 
L 227.506011 129.510329 
L 227.414451 129.402336 
L 227.379008 129.257146 
L 227.626122 126.132565 
L 227.662549 125.825387 
L 227.742295 125.540407 
L 227.87422 125.262626 
L 228.563383 124.115506 
L 230.491068 121.976656 
L 230.595427 121.882462 
L 230.734244 121.839865 
L 231.032553 121.830866 
L 231.103438 121.898061 
L 231.770941 125.499009 
L 231.770941 126.076769 
L 231.658706 126.35335 
L 230.867154 127.970237 
L 230.697817 128.190421 
L 229.29291 129.119156 
L 228.019929 129.567925 
L 227.754109 129.600322 
" clip-path="url(#p0dee7c2964)" style="fill: none; stroke: #1f77b4; stroke-width: 1.5"/>
    <path d="M 242.418498 66.855512 
L 242.30134 66.807516 
L 242.177291 66.688124 
L 242.105421 66.527935 
L 241.90458 65.493008 
L 241.879967 65.345418 
L 241.922301 65.072437 
L 242.037489 64.791057 
L 242.196981 64.560673 
L 242.380102 64.441281 
L 243.422706 64.067507 
L 243.54577 64.02791 
L 243.735782 64.198898 
L 243.067295 66.129563 
L 242.885159 66.453541 
L 242.418498 66.855512 
" clip-path="url(#p0dee7c2964)" style="fill: none; stroke: #1f77b4; stroke-width: 1.5"/>
    <path d="M 312.92669 45.235425 
L 312.801656 45.16943 
L 311.945126 43.820724 
L 312.968039 44.009711 
L 313.265364 44.123103 
L 313.663109 44.379885 
L 313.856074 44.544273 
L 313.88561 44.690063 
L 313.094058 45.16523 
L 312.92669 45.235425 
" clip-path="url(#p0dee7c2964)" style="fill: none; stroke: #1f77b4; stroke-width: 1.5"/>
    <path d="M 302.830462 38.981463 
L 302.821602 38.979063 
L 302.904301 38.979063 
L 302.830462 38.981463 
" clip-path="url(#p0dee7c2964)" style="fill: none; stroke: #1f77b4; stroke-width: 1.5"/>
    <path d="M 264.144831 21.919856 
L 263.95285 21.87126 
L 263.305037 21.515485 
L 262.921075 21.213106 
L 262.691683 20.87353 
L 262.700543 20.281971 
L 263.127824 19.844002 
L 263.27944 19.779206 
L 263.557074 19.709611 
L 263.950881 19.824803 
L 264.351579 20.056987 
L 264.649888 20.337167 
L 265.063385 20.841132 
L 265.165775 21.055917 
L 265.079138 21.205306 
L 264.856637 21.545483 
L 264.788705 21.610278 
L 264.352564 21.892858 
L 264.144831 21.919856 
" clip-path="url(#p0dee7c2964)" style="fill: none; stroke: #1f77b4; stroke-width: 1.5"/>
    <path d="M 261.536844 19.476827 
L 261.457098 19.275841 
L 261.091842 18.221715 
L 260.703942 16.549032 
L 260.792548 16.486037 
L 260.87131 16.468038 
L 261.743592 16.741019 
L 261.940496 16.855011 
L 261.995629 17.120192 
L 261.820385 18.635086 
L 261.705196 19.063456 
L 261.536844 19.476827 
" clip-path="url(#p0dee7c2964)" style="fill: none; stroke: #1f77b4; stroke-width: 1.5"/>
    <path d="M 259.532366 285.56661 
L 259.507753 285.335026 
L 259.583561 285.272031 
L 259.631802 285.354825 
L 259.532366 285.56661 
" clip-path="url(#p0dee7c2964)" style="fill: none; stroke: #1f77b4; stroke-width: 1.5"/>
    <path d="M 101.241638 293.169878 
L 100.913793 293.018089 
L 100.866537 292.786505 
L 101.037843 292.706111 
L 101.534039 292.685712 
L 101.550776 293.105083 
L 101.241638 293.169878 
" clip-path="url(#p0dee7c2964)" style="fill: none; stroke: #1f77b4; stroke-width: 1.5"/>
    <path d="M 102.936977 288.640795 
L 103.057088 288.414611 
L 103.778739 287.43188 
L 103.846671 287.43188 
L 103.752157 287.800854 
L 103.541471 288.198626 
L 103.255961 288.514804 
L 102.936977 288.640795 
" clip-path="url(#p0dee7c2964)" style="fill: none; stroke: #1f77b4; stroke-width: 1.5"/>
    <path d="M 130.600612 238.347971 
L 130.124534 237.85062 
L 129.86639 237.504988 
L 129.745282 237.336341 
L 130.026973 237.327657 
L 130.477676 237.445451 
L 130.968376 237.715119 
L 131.201586 237.959575 
L 131.20174 238.136637 
L 130.83504 238.305936 
L 130.600612 238.347971 
" clip-path="url(#p0dee7c2964)" style="fill: none; stroke: #1f77b4; stroke-width: 1.5"/>
    <path d="M 179.377871 179.413637 
L 178.479991 178.709287 
L 178.373663 178.507101 
L 178.490821 178.068531 
L 178.539062 177.904143 
L 179.847486 177.556767 
L 180.700078 177.398378 
L 180.865477 177.400178 
L 180.949161 178.003736 
L 180.884183 178.430906 
L 180.618363 179.220451 
L 179.377871 179.413637 
" clip-path="url(#p0dee7c2964)" style="fill: none; stroke: #1f77b4; stroke-width: 1.5"/>
    <path d="M 266.708514 329.890909 
L 266.618923 329.835113 
L 266.585449 329.73912 
L 266.673072 329.665925 
L 266.791214 329.682124 
L 266.800074 329.786516 
L 266.766601 329.866311 
L 266.708514 329.890909 
" clip-path="url(#p0dee7c2964)" style="fill: none; stroke: #1f77b4; stroke-width: 1.5"/>
    <path d="M 418.113527 328.854182 
L 418.037719 328.818784 
L 418.049533 328.746789 
L 418.148969 328.663395 
L 418.202133 328.726391 
L 418.178505 328.846382 
L 418.113527 328.854182 
" clip-path="url(#p0dee7c2964)" style="fill: none; stroke: #1f77b4; stroke-width: 1.5"/>
    <path d="M 264.582941 312.114753 
L 264.428372 311.976762 
L 264.378161 311.780576 
L 264.429356 311.622187 
L 264.592786 311.601189 
L 264.705021 311.707981 
L 264.728649 311.86277 
L 264.682377 312.01456 
L 264.582941 312.114753 
" clip-path="url(#p0dee7c2964)" style="fill: none; stroke: #1f77b4; stroke-width: 1.5"/>
    <path d="M 143.873216 304.668074 
L 143.775749 304.609278 
L 143.646777 304.43349 
L 143.632993 304.246303 
L 143.78264 304.219305 
L 144.014986 304.3003 
L 144.094732 304.456889 
L 144.0268 304.604478 
L 143.957884 304.663274 
L 143.873216 304.668074 
" clip-path="url(#p0dee7c2964)" style="fill: none; stroke: #1f77b4; stroke-width: 1.5"/>
    <path d="M 94.336232 295.014749 
L 94.263378 294.948154 
L 94.336232 294.786765 
L 94.424838 294.697971 
L 94.552826 294.670973 
L 94.668999 294.730369 
L 94.690658 294.882758 
L 94.602052 294.989551 
L 94.336232 295.014749 
" clip-path="url(#p0dee7c2964)" style="fill: none; stroke: #1f77b4; stroke-width: 1.5"/>
    <path d="M 109.261518 288.479406 
L 109.053784 288.465007 
L 108.805686 288.333617 
L 108.692466 288.240023 
L 108.628473 288.183627 
L 108.628473 288.061836 
L 108.863772 287.903447 
L 109.024249 287.804454 
L 109.210323 287.86205 
L 109.298929 287.986241 
L 109.331418 288.084034 
L 109.337325 288.360615 
L 109.261518 288.479406 
" clip-path="url(#p0dee7c2964)" style="fill: none; stroke: #1f77b4; stroke-width: 1.5"/>
    <path d="M 275.49238 286.639335 
L 275.432324 286.449748 
L 275.445123 286.216965 
L 275.513054 286.053776 
L 275.628243 286.081974 
L 275.672546 286.220565 
L 275.64498 286.384953 
L 275.574095 286.537342 
L 275.49238 286.639335 
" clip-path="url(#p0dee7c2964)" style="fill: none; stroke: #1f77b4; stroke-width: 1.5"/>
    <path d="M 275.566218 279.951003 
L 275.374237 279.753617 
L 275.418541 279.651024 
L 275.536683 279.699021 
L 275.566218 279.951003 
" clip-path="url(#p0dee7c2964)" style="fill: none; stroke: #1f77b4; stroke-width: 1.5"/>
    <path d="M 274.178049 278.213525 
L 274.15442 278.061735 
L 274.198724 278.022738 
L 274.233182 278.079134 
L 274.178049 278.213525 
" clip-path="url(#p0dee7c2964)" style="fill: none; stroke: #1f77b4; stroke-width: 1.5"/>
    <path d="M 106.756905 276.320057 
L 106.64467 276.209665 
L 106.615134 275.972082 
L 106.696849 276.008079 
L 106.779549 276.144869 
L 106.756905 276.320057 
" clip-path="url(#p0dee7c2964)" style="fill: none; stroke: #1f77b4; stroke-width: 1.5"/>
    <path d="M 123.186533 252.758506 
L 123.089066 252.658913 
L 123.038856 252.538921 
L 123.086113 252.395531 
L 123.168812 252.330736 
L 123.288923 252.376932 
L 123.320428 252.430929 
L 123.37753 252.583318 
L 123.340118 252.758506 
L 123.186533 252.758506 
" clip-path="url(#p0dee7c2964)" style="fill: none; stroke: #1f77b4; stroke-width: 1.5"/>
    <path d="M 122.463898 246.174566 
L 122.381198 246.12117 
L 122.31622 245.990979 
L 122.32705 245.893786 
L 122.409749 245.879987 
L 122.505247 245.905185 
L 122.587947 245.968181 
L 122.640126 246.061774 
L 122.604684 246.11937 
L 122.463898 246.174566 
" clip-path="url(#p0dee7c2964)" style="fill: none; stroke: #1f77b4; stroke-width: 1.5"/>
    <path d="M 127.3156 245.241032 
L 127.108525 245.171325 
L 126.981759 245.127363 
L 126.828264 244.955452 
L 126.817434 244.909855 
L 126.834171 244.83546 
L 126.929669 244.560679 
L 127.08648 244.481134 
L 127.401253 245.148638 
L 127.401253 245.161837 
L 127.3156 245.241032 
" clip-path="url(#p0dee7c2964)" style="fill: none; stroke: #1f77b4; stroke-width: 1.5"/>
    <path d="M 252.715567 237.567569 
L 252.656495 237.463176 
L 252.654526 237.380982 
L 252.72935 237.308987 
L 252.844538 237.308987 
L 252.950866 237.39718 
L 252.86226 237.53937 
L 252.715567 237.567569 
" clip-path="url(#p0dee7c2964)" style="fill: none; stroke: #1f77b4; stroke-width: 1.5"/>
    <path d="M 121.127907 232.152347 
L 121.11314 232.070753 
L 121.145629 232.044355 
L 121.181071 232.098351 
L 121.127907 232.152347 
" clip-path="url(#p0dee7c2964)" style="fill: none; stroke: #1f77b4; stroke-width: 1.5"/>
    <path d="M 127.156108 232.557319 
L 126.965112 232.463726 
L 126.946406 232.431328 
L 126.868629 232.247741 
L 126.919824 232.188345 
L 127.129526 232.023956 
L 127.209272 231.992159 
L 127.303786 232.033556 
L 127.525302 232.209943 
L 127.544008 232.332335 
L 127.429804 232.470325 
L 127.297879 232.557319 
L 127.156108 232.557319 
" clip-path="url(#p0dee7c2964)" style="fill: none; stroke: #1f77b4; stroke-width: 1.5"/>
    <path d="M 249.533606 223.272969 
L 249.54542 223.244171 
L 249.560188 223.269969 
L 249.533606 223.272969 
" clip-path="url(#p0dee7c2964)" style="fill: none; stroke: #1f77b4; stroke-width: 1.5"/>
    <path d="M 249.509977 223.272969 
L 249.507024 223.25737 
L 249.508008 223.223172 
L 249.529668 223.25137 
L 249.509977 223.272969 
" clip-path="url(#p0dee7c2964)" style="fill: none; stroke: #1f77b4; stroke-width: 1.5"/>
    <path d="M 246.270915 208.559598 
L 246.060228 208.39281 
L 246.069089 208.126428 
L 246.270915 208.559598 
" clip-path="url(#p0dee7c2964)" style="fill: none; stroke: #1f77b4; stroke-width: 1.5"/>
    <path d="M 240.528224 190.731845 
L 240.492781 190.717446 
L 240.528224 190.722846 
L 240.528224 190.731845 
" clip-path="url(#p0dee7c2964)" style="fill: none; stroke: #1f77b4; stroke-width: 1.5"/>
    <path d="M 244.292035 187.742255 
L 244.099069 187.714656 
L 243.942531 187.599465 
L 243.923825 187.337283 
L 244.07741 187.108699 
L 244.285143 187.100299 
L 244.398362 187.192693 
L 244.444635 187.259888 
L 244.52635 187.463874 
L 244.516505 187.552668 
L 244.445619 187.684659 
L 244.292035 187.742255 
" clip-path="url(#p0dee7c2964)" style="fill: none; stroke: #1f77b4; stroke-width: 1.5"/>
    <path d="M 241.090384 75.086337 
L 241.033282 75.025141 
L 240.980118 74.824155 
L 240.980118 74.715563 
L 241.027374 74.636968 
L 241.121888 74.630968 
L 241.421181 74.661566 
L 241.48616 74.704763 
L 241.529478 74.788157 
L 241.437918 74.924348 
L 241.090384 75.086337 
" clip-path="url(#p0dee7c2964)" style="fill: none; stroke: #1f77b4; stroke-width: 1.5"/>
    <path d="M 417.813249 328.705392 
L 417.65868 328.425812 
L 417.816202 328.361616 
L 417.967818 328.467209 
L 417.813249 328.705392 
" clip-path="url(#p0dee7c2964)" style="fill: none; stroke: #1f77b4; stroke-width: 1.5"/>
    <path d="M 69.575616 321.208317 
L 69.363945 321.15852 
L 69.236942 320.980932 
L 69.248756 320.800945 
L 69.520483 320.416972 
L 69.682928 320.391174 
L 69.8946 320.481167 
L 69.996005 320.540563 
L 70.091503 320.677354 
L 70.167311 320.977933 
L 70.024556 321.148921 
L 69.575616 321.208317 
" clip-path="url(#p0dee7c2964)" style="fill: none; stroke: #1f77b4; stroke-width: 1.5"/>
    <path d="M 96.01385 301.258512 
L 95.915398 301.195517 
L 95.883893 301.019129 
L 95.877986 300.875139 
L 95.881924 300.790545 
L 95.925243 300.486366 
L 96.021726 300.300979 
L 96.141837 300.265582 
L 96.208784 300.365175 
L 96.222567 300.43237 
L 96.223552 300.533163 
L 96.188109 300.71855 
L 96.10541 301.110923 
L 96.01385 301.258512 
" clip-path="url(#p0dee7c2964)" style="fill: none; stroke: #1f77b4; stroke-width: 1.5"/>
    <path d="M 274.499986 278.216525 
L 274.475373 278.064735 
L 274.519676 278.025738 
L 274.554134 278.082134 
L 274.499986 278.216525 
" clip-path="url(#p0dee7c2964)" style="fill: none; stroke: #1f77b4; stroke-width: 1.5"/>
    <path d="M 126.698307 217.852348 
L 126.529955 217.844548 
L 125.903802 217.38738 
L 125.859499 217.339384 
L 125.856545 217.24579 
L 125.890019 217.081402 
L 125.995362 216.926613 
L 126.154854 216.82222 
L 127.165953 216.983009 
L 127.22404 217.010607 
L 127.201396 217.516971 
L 127.173829 217.616564 
L 127.089161 217.718557 
L 126.698307 217.852348 
" clip-path="url(#p0dee7c2964)" style="fill: none; stroke: #1f77b4; stroke-width: 1.5"/>
    <path d="M 130.63244 211.336204 
L 130.579276 211.296607 
L 130.582229 211.143017 
L 130.605858 210.982229 
L 130.656068 210.831039 
L 130.726953 210.755444 
L 130.840173 210.658251 
L 130.980959 210.611455 
L 131.178847 210.711048 
L 131.25367 210.829239 
L 131.21232 210.913833 
L 131.098116 211.056623 
L 130.96816 211.182615 
L 130.845095 211.24621 
L 130.63244 211.336204 
" clip-path="url(#p0dee7c2964)" style="fill: none; stroke: #1f77b4; stroke-width: 1.5"/>
    <path d="M 133.203015 207.139497 
L 133.128191 207.088501 
L 132.980514 206.96311 
L 132.865325 206.415348 
L 132.854496 206.315755 
L 133.033678 206.014576 
L 133.311312 205.910183 
L 133.431423 205.970179 
L 133.5092 206.052973 
L 133.521014 206.508942 
L 133.485571 206.754324 
L 133.423547 206.914513 
L 133.203015 207.139497 
" clip-path="url(#p0dee7c2964)" style="fill: none; stroke: #1f77b4; stroke-width: 1.5"/>
    <path d="M 158.875294 204.67727 
L 158.797517 204.616074 
L 158.765028 204.423487 
L 158.757152 204.2423 
L 158.804409 204.068312 
L 158.862495 203.991518 
L 158.939287 204.040114 
L 158.975715 204.072512 
L 159.024941 204.119309 
L 159.104686 204.233901 
L 159.140129 204.364692 
L 159.131268 204.485883 
L 159.039708 204.593876 
L 158.875294 204.67727 
" clip-path="url(#p0dee7c2964)" style="fill: none; stroke: #1f77b4; stroke-width: 1.5"/>
    <path d="M 114.424327 203.804331 
L 114.317015 203.782732 
L 113.998031 203.596745 
L 113.93896 203.447956 
L 113.932069 202.867196 
L 113.963573 202.767603 
L 114.33769 202.708207 
L 114.629107 202.916393 
L 114.719683 202.996187 
L 114.757094 203.057383 
L 114.826011 203.24637 
L 114.810258 203.354362 
L 114.508996 203.777933 
L 114.424327 203.804331 
" clip-path="url(#p0dee7c2964)" style="fill: none; stroke: #1f77b4; stroke-width: 1.5"/>
    <path d="M 115.268059 203.201973 
L 115.211941 203.200773 
L 115.001255 202.999787 
L 114.518841 202.441226 
L 114.489306 202.342833 
L 114.61237 202.220442 
L 115.28578 202.083651 
L 115.341898 202.138847 
L 115.365526 202.171845 
L 115.393093 202.335634 
L 115.424597 202.654211 
L 115.320238 203.068782 
L 115.268059 203.201973 
" clip-path="url(#p0dee7c2964)" style="fill: none; stroke: #1f77b4; stroke-width: 1.5"/>
    <path d="M 116.149202 202.557618 
L 115.660881 202.322434 
L 115.563414 202.212042 
L 115.545693 202.179644 
L 115.498436 201.945661 
L 115.504343 201.81727 
L 115.746534 201.361302 
L 115.841048 201.357702 
L 116.048781 201.430297 
L 116.182676 201.545489 
L 116.229933 201.664281 
L 116.269313 201.794471 
L 116.289004 201.913263 
L 116.294911 201.95946 
L 116.273251 202.445426 
L 116.224025 202.557618 
L 116.149202 202.557618 
" clip-path="url(#p0dee7c2964)" style="fill: none; stroke: #1f77b4; stroke-width: 1.5"/>
    <path d="M 117.373942 196.682229 
L 117.180977 196.643232 
L 116.840333 196.484843 
L 116.854117 196.354052 
L 117.010655 196.140467 
L 117.484208 195.870486 
L 117.57183 195.895684 
L 117.749043 196.24006 
L 117.742152 196.350452 
L 117.472394 196.66783 
L 117.373942 196.682229 
" clip-path="url(#p0dee7c2964)" style="fill: none; stroke: #1f77b4; stroke-width: 1.5"/>
    <path d="M 122.126208 193.343463 
L 122.01988 193.332663 
L 122.062214 193.194073 
L 122.279793 192.981088 
L 122.486541 192.837098 
L 122.607637 192.843098 
L 122.869519 193.002687 
L 122.905946 193.116679 
L 122.804541 193.261868 
L 122.640126 193.336263 
L 122.126208 193.343463 
" clip-path="url(#p0dee7c2964)" style="fill: none; stroke: #1f77b4; stroke-width: 1.5"/>
    <path d="M 159.489633 186.311355 
L 159.352785 186.214761 
L 159.326203 186.019775 
L 159.440407 185.853587 
L 159.562487 185.731795 
L 159.984845 185.365221 
L 160.015365 185.404218 
L 160.020288 185.559607 
L 160.001582 185.720996 
L 159.979923 185.80919 
L 159.901161 186.09117 
L 159.729855 186.253759 
L 159.489633 186.311355 
" clip-path="url(#p0dee7c2964)" style="fill: none; stroke: #1f77b4; stroke-width: 1.5"/>
    <path d="M 164.660319 183.927721 
L 164.530363 183.820329 
L 164.527409 183.562947 
L 164.640628 182.974988 
L 164.723328 182.780002 
L 164.99407 182.718806 
L 165.189005 182.7998 
L 165.522756 182.989387 
L 165.554261 183.051783 
L 165.465654 183.207772 
L 164.870021 183.826928 
L 164.660319 183.927721 
" clip-path="url(#p0dee7c2964)" style="fill: none; stroke: #1f77b4; stroke-width: 1.5"/>
    <path d="M 161.17808 183.214971 
L 160.669085 182.898793 
L 160.560788 182.772802 
L 160.635611 182.621613 
L 160.802979 182.574816 
L 161.160359 182.66841 
L 161.360216 182.784201 
L 161.437008 182.960589 
L 161.373015 183.103379 
L 161.267671 183.175974 
L 161.17808 183.214971 
" clip-path="url(#p0dee7c2964)" style="fill: none; stroke: #1f77b4; stroke-width: 1.5"/>
    <path d="M 162.667655 182.498621 
L 162.508164 182.400228 
L 162.42448 182.204642 
L 162.465829 182.030654 
L 162.557389 181.959859 
L 163.458223 181.385099 
L 163.504495 181.52009 
L 163.458223 181.857866 
L 163.316452 182.301235 
L 163.183543 182.430826 
L 162.908862 182.496222 
L 162.667655 182.498621 
" clip-path="url(#p0dee7c2964)" style="fill: none; stroke: #1f77b4; stroke-width: 1.5"/>
    <path d="M 155.604727 182.058252 
L 155.466894 181.968259 
L 155.459018 181.833268 
L 155.693333 181.457094 
L 155.841011 181.263908 
L 156.030038 181.142716 
L 156.201344 181.057522 
L 156.319486 181.08392 
L 156.390372 181.213511 
L 156.405139 181.347302 
L 156.399232 181.415097 
L 156.163933 181.669479 
L 155.805568 181.986257 
L 155.604727 182.058252 
" clip-path="url(#p0dee7c2964)" style="fill: none; stroke: #1f77b4; stroke-width: 1.5"/>
    <path d="M 172.829845 180.386169 
L 172.741239 180.341172 
L 172.652632 180.173784 
L 172.693982 179.993197 
L 172.89187 179.714816 
L 172.981461 179.731615 
L 173.087789 179.903803 
L 173.104526 180.09639 
L 173.039548 180.207982 
L 172.829845 180.386169 
" clip-path="url(#p0dee7c2964)" style="fill: none; stroke: #1f77b4; stroke-width: 1.5"/>
    <path d="M 191.23392 179.434374 
L 191.066073 179.35178 
L 191.001195 179.225199 
L 191.434195 178.869033 
L 191.628767 179.147242 
L 191.23392 179.434374 
" clip-path="url(#p0dee7c2964)" style="fill: none; stroke: #1f77b4; stroke-width: 1.5"/>
    <path d="M 177.437387 178.792681 
L 177.342874 178.778882 
L 176.898856 178.5203 
L 176.864398 178.483702 
L 176.885073 178.446505 
L 176.977618 178.382309 
L 177.292663 178.222721 
L 177.430496 178.189723 
L 177.685486 178.343912 
L 177.665795 178.481303 
L 177.437387 178.792681 
" clip-path="url(#p0dee7c2964)" style="fill: none; stroke: #1f77b4; stroke-width: 1.5"/>
    <path d="M 211.301526 178.563533 
L 211.232956 178.448376 
L 211.173225 178.330963 
L 211.492516 178.140552 
L 211.613021 178.165483 
L 211.588267 178.28658 
L 211.534611 178.405851 
L 211.398283 178.499514 
L 211.301526 178.563533 
" clip-path="url(#p0dee7c2964)" style="fill: none; stroke: #1f77b4; stroke-width: 1.5"/>
    <path d="M 210.975028 178.050817 
L 210.889271 177.978602 
L 211.462055 177.63396 
L 211.626327 177.60892 
L 211.543123 177.831477 
L 211.189994 178.002547 
L 210.975028 178.050817 
" clip-path="url(#p0dee7c2964)" style="fill: none; stroke: #1f77b4; stroke-width: 1.5"/>
    <path d="M 210.388463 173.199011 
L 210.271467 172.650452 
L 210.427641 172.651854 
L 210.579272 172.862231 
L 210.608895 173.05334 
L 210.476436 173.188386 
L 210.388463 173.199011 
" clip-path="url(#p0dee7c2964)" style="fill: none; stroke: #1f77b4; stroke-width: 1.5"/>
    <path d="M 212.076652 139.908801 
L 212.033333 139.903402 
L 211.69269 139.455233 
L 211.568641 139.221249 
L 211.643464 139.113257 
L 213.219677 138.983666 
L 213.296469 139.093458 
L 213.269887 139.449833 
L 213.18325 139.568025 
L 212.983393 139.651419 
L 212.383821 139.840406 
L 212.076652 139.908801 
" clip-path="url(#p0dee7c2964)" style="fill: none; stroke: #1f77b4; stroke-width: 1.5"/>
    <path d="M 50.661065 307.381084 
L 50.60987 307.372085 
L 50.638421 307.282091 
L 50.680756 307.377484 
L 50.661065 307.381084 
" clip-path="url(#p0dee7c2964)" style="fill: none; stroke: #1f77b4; stroke-width: 1.5"/>
    <path d="M 49.533793 307.096104 
L 49.563328 306.933515 
L 49.774999 306.87112 
L 49.847854 306.87232 
L 49.943352 307.041508 
L 49.533793 307.096104 
" clip-path="url(#p0dee7c2964)" style="fill: none; stroke: #1f77b4; stroke-width: 1.5"/>
    <path d="M 51.476246 304.598479 
L 51.472308 304.564881 
L 51.48806 304.58048 
L 51.476246 304.598479 
" clip-path="url(#p0dee7c2964)" style="fill: none; stroke: #1f77b4; stroke-width: 1.5"/>
   </g>
  </g>
 </g>
 <defs>
  <clipPath id="p0dee7c2964">
   <rect x="23.817653" y="0" width="413.164693" height="345.6"/>
  </clipPath>
 </defs>
</svg>
